<svg width="1920" height="1282" viewBox="0 0 1920 1282" fill="none" xmlns="http://www.w3.org/2000/svg">
<g clip-path="url(#clip0_89_3785)">
<g style="mix-blend-mode:color-dodge">
<path d="M0.844238 1280.7C640.188 1277.99 1279.68 1276.78 1919.03 1280.7" stroke="#666666" stroke-miterlimit="10"/>
<path d="M0.844238 1255.2C185.936 1242.83 373.867 1238.61 559.215 1248.38C634.919 1252.37 710.828 1254.33 786.558 1250.14C869.142 1245.56 947.762 1227.31 1029.25 1216.16C1174.16 1196.32 1321.09 1242.93 1465.39 1250.7C1617.39 1258.91 1766.65 1237.59 1919.03 1257.02" stroke="#666666" stroke-miterlimit="10"/>
<path d="M0.844238 1226.72C193.097 1205.47 392.358 1201.59 585.072 1220.66C662.336 1228.31 740.24 1232.35 817.633 1224.24C908.964 1214.7 988.223 1179.57 1076.1 1158.12C1222.88 1122.3 1367.79 1209.28 1511.89 1223.42C1575.14 1229.63 1637.75 1216.06 1700.84 1211.99C1775.45 1207.16 1846.62 1214.86 1919.03 1233.34" stroke="#666666" stroke-miterlimit="10"/>
<path d="M0.844238 1195.83C199.005 1167.12 402.742 1170.65 601.057 1197.26C679.089 1207.72 757.171 1213.48 835.382 1201.36C876.073 1195.04 915.767 1184.43 954.591 1170.75C1007.38 1152.16 1056.05 1118 1108.4 1100.92C1255.34 1052.98 1394.78 1175.3 1534.11 1197.16C1598.05 1207.19 1656.39 1186.4 1719.38 1179.21C1789.54 1171.21 1853.43 1184.91 1919.05 1209.69" stroke="#666666" stroke-miterlimit="10"/>
<path d="M0.844238 1163C194.837 1129.02 393.023 1139.66 586.325 1174.05C670.214 1188.98 754.23 1198.82 838.63 1181.69C945.793 1159.93 1024.82 1095.53 1122.93 1054.36C1282.04 987.599 1408.74 1149.55 1557.16 1174.18C1615.75 1183.89 1664.06 1159.09 1720.15 1148.27C1792.15 1134.39 1854.35 1154.82 1919.03 1186.04" stroke="#666666" stroke-miterlimit="10"/>
<path d="M0.844238 1128.77C194.99 1088.93 385.427 1112.5 576.709 1155.64C660.853 1174.61 745.228 1184.99 830.114 1164C874.181 1153.11 915.818 1135.34 956.023 1114.47C1016.2 1083.25 1069.45 1031.09 1129.84 1003.2C1292.14 928.203 1407.95 1117.31 1552.32 1148.71C1618.03 1163 1661.74 1131.6 1722.32 1116.19C1794.35 1097.88 1857.13 1127.41 1919.03 1162.36" stroke="#666666" stroke-miterlimit="10"/>
<path d="M0.844238 1093.66C191.154 1048.48 365.708 1086.19 550.11 1136.38C635.738 1159.68 721.314 1173.77 808.502 1149.6C854.641 1136.82 897.583 1115.75 938.811 1091.74C1003.42 1054.13 1059.14 994.171 1124.18 960.062C1295 870.494 1396.31 1090.11 1543.93 1125.08C1613.32 1141.52 1653.96 1103.84 1715.75 1084.38C1790.54 1060.83 1857.01 1099.95 1919 1138.69" stroke="#666666" stroke-miterlimit="10"/>
<path d="M0.844238 1058.17C182.586 1008.11 336.936 1057.56 509.163 1114.17C594.586 1142.24 679.779 1163.26 768.808 1140.25C904.258 1105.24 992.545 998.722 1106.38 926.95C1291.25 810.432 1373.62 1069.91 1534.91 1102.94C1604.73 1117.26 1644.22 1072.74 1705.93 1051.24C1784.09 1024.01 1856.24 1073.05 1919.03 1114.96" stroke="#666666" stroke-miterlimit="10"/>
<path d="M0.844238 1022.86C177.189 965.917 312.587 1029.92 474.533 1093.35C561.977 1127.59 650.418 1155.36 743.591 1127.05C881.726 1085.09 971.752 970.801 1085.95 891.307C1280.09 756.175 1343.83 1044.92 1510.58 1078.88C1581.56 1093.33 1625.37 1043.93 1686.14 1019.82C1771.97 985.758 1850.77 1043.72 1919.03 1091.36" stroke="#666666" stroke-miterlimit="10"/>
<path d="M0.844238 988.187C79.8478 958.093 156.959 951.164 238.673 975.454C314.122 997.878 378.906 1043.16 450.109 1075.2C534.202 1113.04 620.597 1146.23 712.618 1116.08C858.784 1068.19 946.765 938.149 1066.05 851.88C1259.2 712.171 1315.39 1009.97 1473.96 1050.14C1554.24 1070.47 1600.76 1011.53 1669.03 984.582C1761.28 948.147 1847.47 1016.16 1919.03 1067.68" stroke="#666666" stroke-miterlimit="10"/>
<path d="M0.844238 954.718C71.9449 922.527 142.79 912.504 217.88 937.663C291.846 962.44 351.923 1014.6 420.057 1050.7C499.316 1092.71 580.878 1134.88 672.081 1107.98C824.998 1062.93 920.984 916.876 1039.66 822.373C1242.01 661.212 1275.59 985.298 1441.37 1022.6C1526.44 1041.75 1579.41 973.409 1652.45 946.766C1750.71 910.944 1844.96 989.21 1919 1043.98" stroke="#666666" stroke-miterlimit="10"/>
<path d="M0.844238 922.936C165.169 834.723 263.866 939.07 397.704 1023.4C473.715 1071.29 555.558 1126.69 648.705 1095.86C799.551 1045.92 898.785 895.782 1013.13 795.935C1086.95 731.501 1157.61 716.543 1220.83 798.057C1275.67 868.73 1310.89 970.519 1408.46 991C1493.42 1008.82 1553.42 938.865 1626.31 910.356C1733.58 868.372 1839.77 960.164 1919.03 1020.33" stroke="#666666" stroke-miterlimit="10"/>
<path d="M0.844238 893.378C160.002 793.378 259.185 897.213 384.711 991.46C451.669 1041.73 527.475 1111.35 617.937 1087.75C673.002 1073.38 721.826 1032.55 763.872 996.497C844.692 927.231 911.777 845.513 988.504 772.335C1062.06 702.173 1134.57 674.559 1197.64 767.119C1244.65 836.103 1280.71 942.675 1375.21 957.735C1465.06 972.053 1530.81 894.989 1609.61 868.346C1723.27 829.89 1837.85 933.24 1919.03 996.6" stroke="#666666" stroke-miterlimit="10"/>
<path d="M0.844238 866.582C62.8911 821.964 131.357 793.966 206.96 821.146C274.275 845.359 326.603 901.611 378.343 948.479C436.656 1001.3 510.314 1095.09 599.829 1076.66C650.213 1066.27 694.536 1027.72 732.184 994.887C815.28 922.399 888.119 838.43 962.826 757.658C1032.75 682.025 1110.25 627.615 1175.46 732.882C1219.38 803.733 1253.47 915.802 1353.06 919.739C1441.45 923.242 1507.87 852.672 1587.54 826.643C1709.74 786.73 1833.71 904.04 1919.05 972.948" stroke="#666666" stroke-miterlimit="10"/>
<path d="M0.844238 841.984C64.5279 792.381 135.475 759.448 215.911 788.034C283.789 812.146 340.005 867.119 390.184 916.543C442.359 967.962 512.386 1068.96 597.809 1051.73C645.61 1042.09 687.656 1003.45 722.9 972.105C803.489 900.384 875.459 818.614 948.274 739.274C1014.95 666.633 1093.26 600.409 1159.4 705.191C1202.68 773.741 1235.54 883.15 1333.27 884.506C1420.89 885.707 1493.96 822.117 1575.78 800.333C1703.12 766.403 1827.57 877.627 1919.03 948.684" stroke="#666666" stroke-miterlimit="10"/>
<path d="M0.844238 814.574C71.1009 759.32 146.064 729.609 231.947 767.962C302.971 799.693 365.171 859.729 420.134 912.887C469.444 960.599 530.544 1041.12 608.295 1016.03C655.738 1000.72 696.992 959.806 732.388 926.924C803.336 861.033 869.27 789.67 936.202 719.765C999.988 653.107 1077.38 588.264 1145.95 681.207C1194.72 747.328 1225.77 853.081 1323.14 857.914C1409.87 862.209 1493.73 805.012 1577.34 789.67C1703.78 766.454 1821.38 853.593 1919.05 920.737" stroke="#666666" stroke-miterlimit="10"/>
<path d="M0.844238 784.122C76.3951 726.49 153.378 701.151 241.64 746.664C309.263 781.514 371.668 837.638 427.295 888.852C479.137 936.59 542.795 1018.84 621.134 982.435C662.03 963.437 695.687 927.257 727.81 896.651C795.382 832.217 859.296 763.897 925.281 697.878C993.543 629.584 1070.88 576.63 1141.7 667.426C1190.45 729.942 1225.57 828.356 1318 832.447C1403.04 836.232 1487.51 795.5 1570.51 781.949C1698.62 761.033 1812.35 826.336 1919.05 889.261" stroke="#666666" stroke-miterlimit="10"/>
<path d="M0.844238 751.189C87.9809 688.341 171.102 674.124 263.891 732.601C330.567 774.61 392.205 831.527 451.873 882.844C501.695 925.697 557.731 992.969 627.451 954.002C664.792 933.138 695.866 895.935 725.611 865.84C788.937 801.739 850.6 736.078 915.767 673.818C983.287 609.307 1060.58 562.746 1132.45 644.26C1186.1 705.114 1223.26 802.174 1315.47 810.969C1396.72 818.717 1485.26 786.96 1565.19 774.585C1692.91 754.82 1805.29 799.949 1919 855.05" stroke="#666666" stroke-miterlimit="10"/>
<path d="M0.844238 716.39C95.2445 652.902 182.049 646.101 276.654 712.529C348.036 762.644 412.18 825.978 480.058 880.9C526.734 918.64 578.371 970.391 636.709 927.027C675.278 898.364 706.762 855.178 738.782 819.995C792.926 760.547 848.426 701.892 907.992 647.84C980.985 581.59 1060.14 550.294 1133.65 630.146C1187.46 688.596 1228.69 779.826 1317.1 789.721C1400.79 799.08 1491.27 777.116 1574.16 765.738C1696.06 749.016 1804.55 776.247 1919.03 818.614" stroke="#666666" stroke-miterlimit="10"/>
<path d="M0.844238 680.261C108.467 612.989 199.952 620.149 298.751 699.003C373.714 758.834 437.602 828.458 515.736 884.915C569.343 923.626 607.988 945.487 656.914 891.537C740.061 799.847 807.402 695.347 904.82 616.288C976.33 558.272 1055 536.64 1126.26 604.168C1186.46 661.212 1226.97 748.786 1313.88 769.343C1394.11 788.29 1494.8 769.599 1575.47 758.604C1694.52 742.368 1801.97 751.905 1919.05 780.747" stroke="#666666" stroke-miterlimit="10"/>
<path d="M0.844238 643.416C121.357 573.127 219.492 595.96 321.104 685.937C393.893 750.396 454.431 825.032 537.041 877.985C597.681 916.876 629.599 923.754 671.083 861.826C736.813 763.718 802.978 663.437 898.733 591.077C976.151 532.549 1054.59 519.407 1130.25 586.883C1193.24 643.084 1238.07 733.495 1327.15 753.388C1406.16 771.031 1498.36 762.644 1578 751.803C1693.63 736.052 1802.25 728.944 1919.05 741.959" stroke="#666666" stroke-miterlimit="10"/>
<path d="M0.844238 606.444C132.201 533.956 234.965 569.675 339.084 668.857C412.768 739.044 473.51 824.777 564.228 874.534C631.569 911.481 655.201 892.279 687.324 828.944C738.424 728.228 803.054 626.438 897.71 560.829C977.839 505.267 1058.89 503.554 1134.16 567.4C1199.81 623.115 1247.64 711.174 1335.59 735.873C1524.24 788.852 1729.54 709.665 1919.05 703.094" stroke="#666666" stroke-miterlimit="10"/>
<path d="M0.844238 569.906C66.1904 535.106 127.623 514.447 200.745 539.785C261.231 560.752 310.772 604.756 355.146 649.578C428.344 723.575 490.927 823.14 588.448 867.119C661.595 900.103 678.91 855.664 703.59 793.659C743.821 692.509 804.563 588.878 899.475 529.66C1106.33 400.563 1180.99 661.775 1345.57 718.41C1537.77 784.557 1731.1 701.1 1919.05 664.715" stroke="#666666" stroke-miterlimit="10"/>
<path d="M0.844238 534.39C69.0037 498.338 131.818 478.241 206.269 505.625C268.725 528.586 319.212 575.505 364.455 623.038C435.607 697.776 509.189 827.155 615.328 856.917C689.626 877.755 701.339 808.259 720.163 752.314C753.105 654.385 809.883 546.408 904.872 494.605C1102.06 387.062 1201.37 628.868 1350.25 697.213C1545.57 786.883 1734.7 694.938 1919.03 627.487" stroke="#666666" stroke-miterlimit="10"/>
<path d="M0.844238 500.511C69.6687 463.079 131.664 442.751 207.42 469.266C270.234 491.256 321.565 540.322 366.22 588.136C438.676 665.738 516.35 813.143 629.011 835.132C705.585 850.09 716.327 773.613 733.053 716.185C761.775 617.668 813.489 508.617 912.749 462.797C1110.22 371.644 1216.72 603.784 1362.37 678.855C1438.2 717.924 1536.39 737.944 1620.87 724.342C1727.95 707.108 1825.88 643.672 1919.05 592.202" stroke="#666666" stroke-miterlimit="10"/>
<path d="M0.844238 468.806C74.1444 426.438 144.989 402.02 226.141 438.635C287.037 466.121 335.35 516.646 379.008 565.687C444.431 639.172 526.887 793.992 636.94 805.6C719.78 814.345 730.24 723.907 747.99 662.849C775.433 568.474 824.845 467.298 924.309 430.887C1120.3 359.116 1233.62 574.329 1375.03 658.425C1446.49 700.921 1539.89 730.018 1623.47 719.612C1735.45 705.651 1832.35 624.649 1919 559.32" stroke="#666666" stroke-miterlimit="10"/>
<path d="M0.844238 439.888C70.0523 395.807 138.186 365.124 219.952 398.134C285.477 424.597 337.652 480.772 382.665 533.265C447.014 608.31 527.936 762.388 642.259 765.099C723.769 767.016 738.859 675.275 758.092 614.012C787.837 519.356 834.871 427.538 939.194 400.767C1138.97 349.476 1249.89 546.254 1392.83 640.655C1462.81 686.883 1556.13 725.007 1641.38 712.708C1752.86 696.6 1842.43 603.963 1919.03 529.66" stroke="#666666" stroke-miterlimit="10"/>
<path d="M0.844238 414.344C64.3745 368.295 130.36 329.711 211.154 356.763C274.122 377.832 323.713 429.43 366.092 478.369C435.505 558.502 505.327 701.049 624.817 710.151C715.662 717.055 739.268 628.791 765.407 558.962C801.059 463.692 850.753 383.022 959.936 368.269C1153.49 342.112 1265.03 508.489 1399.51 613.219C1466.93 665.712 1558.21 715.981 1646.42 707.39C1763.43 695.986 1849.54 587.216 1919.03 503.835" stroke="#666666" stroke-miterlimit="10"/>
<path d="M0.844238 394.196C64.0676 350.09 129.26 313.782 208.443 339.555C270.106 359.627 319.186 408.949 361.054 456.405C428.497 532.805 499.879 679.468 615.942 683.483C705.687 686.577 736.404 607.108 768.578 537.254C809.832 447.737 865.664 365.789 971.548 351.496C1158.33 326.285 1275 481.718 1407.56 581.13C1472.6 629.89 1564.34 679.494 1647.87 677.858C1764.65 675.556 1851.15 564.511 1919.03 483.457" stroke="#666666" stroke-miterlimit="10"/>
<path d="M0.844238 380.414C63.0701 337.842 127.316 302.531 204.939 326.004C264.914 344.132 313.278 390.31 354.481 435.515C420.85 508.361 491.925 653.49 604.228 654.181C692.286 654.718 729.78 584.659 768.22 516.415C815.177 433.061 876.815 353.081 978.939 339.069C1158.97 314.395 1280.58 453.797 1413.22 546.587C1477.62 591.639 1568.36 641.908 1648.05 649.016C1764.24 659.371 1852.15 547.226 1919 469.087" stroke="#666666" stroke-miterlimit="10"/>
<path d="M0.844238 371.874C60.5381 331.092 124.35 295.832 198.903 314.753C262.459 330.862 312.946 378.906 356.22 425.416C422.001 496.114 487.961 627.436 597.86 622.552C681.007 618.87 723.386 555.766 766.814 493.659C820.139 417.361 884.513 345.82 982.162 331.961C1159.48 306.776 1283.7 427.282 1421.66 513.245C1485.39 552.979 1566.26 600.102 1639.69 619.1C1758.72 649.885 1849.36 538.379 1919.03 459.627" stroke="#666666" stroke-miterlimit="10"/>
<path d="M0.844238 367.476C58.9013 327.308 121.357 291.281 194.683 306.188C255.733 318.614 305.35 361.365 347.882 404.296C414.584 471.593 476.682 592.457 583.154 587.727C663.922 584.147 712.491 531.015 761.903 473.766C821.111 405.191 889.449 340.041 983.338 326.387C1153.16 301.688 1283.29 398.031 1422.86 474.687C1492.12 512.733 1564.96 559.243 1637.67 590.028C1754.73 639.606 1846.75 532.319 1919 454.053" stroke="#666666" stroke-miterlimit="10"/>
<path d="M0.844238 366.121C122.994 279.545 228.648 279.98 339.57 382.639C407.678 445.666 465.556 553.848 568.294 550.166C646.428 547.354 700.751 504.296 755.816 453.746C820.702 394.196 892.186 336.589 982.341 323.191C1144.16 299.131 1281.17 368.806 1421.99 434.902C1499.51 471.286 1562.22 516.927 1634.42 561.187C1748.44 631.066 1841.51 531.296 1919.05 451.394" stroke="#666666" stroke-miterlimit="10"/>
<path d="M0.844238 366.709C114.529 283.457 219.159 267.297 331.744 359.959C401.642 417.489 455.479 511.736 554.049 509.793C718.168 506.571 819.244 345.871 979.655 321.631C1133.31 298.415 1277.66 339.581 1419 394.119C1505.39 427.461 1559.79 474.687 1629.87 532.294C1739.79 622.654 1833.22 534.262 1919.03 450.473" stroke="#666666" stroke-miterlimit="10"/>
<path d="M0.844238 368.141C104.81 288.929 208.622 255.382 322.178 333.853C392.384 382.358 443.868 463.411 534.585 466.53C697.708 472.181 819.09 344.439 975.64 320.02C1118.48 297.75 1271.14 310.1 1408.94 351.419C1507.05 380.849 1557.16 434.365 1626.31 505.804C1652.14 532.498 1681.2 560.292 1720 564.485C1797.19 572.795 1869.39 496.318 1919.03 450.396" stroke="#666666" stroke-miterlimit="10"/>
<path d="M0.844238 369.317C97.5719 292.662 200.898 243.953 316.987 308.131C388.803 347.839 438.753 415.239 524.406 420.225C683.769 429.507 818.016 344.132 971.318 320.327C1108.84 298.977 1264.67 281.181 1402.01 310.637C1507.67 333.291 1555.19 396.472 1619.23 477.218C1643.76 508.157 1671.53 543.749 1712.07 553.465C1790.38 572.232 1867.65 495.091 1919 450.115" stroke="#666666" stroke-miterlimit="10"/>
<path d="M0.844238 369.113C95.2445 291.383 200.156 231.22 321.692 283.073C387.959 311.353 437.269 363.181 511.004 370.391C669.472 385.912 813.566 343.8 968.3 321.094C1049.84 309.128 1130.17 297.264 1211.01 280.977C1273.85 268.32 1334.93 261.749 1398.82 270.903C1509.2 286.704 1555.83 365.559 1613.07 451.47C1635.98 485.861 1663.53 528.561 1705.16 542.24C1784.96 568.474 1864.55 493.812 1919.03 448.479" stroke="#666666" stroke-miterlimit="10"/>
<path d="M0.844238 366.454C91.7662 289.184 196.729 217.591 321.002 250.703C386.885 268.269 440.057 309.128 508.524 317.77C664.715 337.458 809.423 341.933 965.486 320.199C1048.12 308.693 1125.59 291.741 1204.42 264.434C1265.11 243.416 1323.34 226.183 1388.41 230.785C1504.27 238.967 1551.33 332.115 1603.63 422.577C1625.9 461.11 1652.81 510.688 1695.98 529.43C1777.31 564.741 1861.12 490.54 1919.08 444.592" stroke="#666666" stroke-miterlimit="10"/>
<path d="M0.844238 360.24C90.4874 282.255 195.041 202.608 320.797 214.677C388.317 221.146 450.109 253.056 517.143 262.925C670.367 285.503 805.152 337.024 962.545 317.822C1045.82 307.645 1120.65 285.912 1195.69 248.734C1252.22 220.736 1306.08 192.406 1370.84 191.588C1496.72 190.054 1544.27 299.975 1594.96 396.932C1616.85 438.814 1643.17 493.301 1687.77 515.751C1770.54 557.428 1857.8 484.02 1919.03 437.305" stroke="#666666" stroke-miterlimit="10"/>
<path d="M0.844238 349.374C92.3288 268.857 197.164 184.019 324.148 175.633C392.614 171.107 464.687 191.46 531.312 205.267C681.16 236.308 805.919 330.734 965.051 313.552C1046.87 304.73 1119.12 278.113 1187.71 233.214C1243.06 196.983 1293.78 158.144 1362.5 154.129C1491.12 146.638 1538.23 274.303 1585.16 371.184C1607.46 417.182 1633.07 472.82 1679.05 500.051C1761.63 548.939 1856.85 471.695 1919.03 425.671" stroke="#666666" stroke-miterlimit="10"/>
<path d="M0.844238 332.703C157.394 195.244 322.383 89.261 535.506 140.757C687.222 177.423 804.077 320.02 968.683 306.571C1052.09 299.744 1122.34 266.275 1185.8 213.27C1235.49 171.772 1279.76 126.259 1347.56 118.921C1476.87 104.935 1524.27 235.694 1568.59 332.447C1592.78 385.247 1618.97 451.291 1671.48 482.741C1756.14 533.444 1854.45 455.536 1919 408.591" stroke="#666666" stroke-miterlimit="10"/>
<path d="M0.844238 310.049C151.486 181.386 345.273 39.0692 556.018 98.0823C703.948 139.504 815.714 297.239 978.3 288.903C1059.61 284.735 1128.69 245.794 1186.08 190.616C1231.6 146.868 1272.29 97.5198 1339.25 90.1048C1463.29 76.3231 1513.78 205.395 1557.49 297.162C1583.65 352.058 1611.07 419.253 1664.88 453.03C1751.05 507.108 1850.56 433.265 1919 385.605" stroke="#666666" stroke-miterlimit="10"/>
<path d="M0.844238 286.372C152.023 163.181 350.491 27.1541 557.91 78.2408C710.368 115.776 831.137 272.309 996.203 261.596C1071.01 256.737 1133.7 220.404 1186.23 169.164C1228.15 128.279 1264.9 81.6926 1326.1 71.6952C1448.18 51.7514 1508.49 184.071 1555.85 271.823C1583.06 322.194 1612.58 380.568 1661.97 413.066C1748.34 469.905 1845.52 406.98 1919.03 359.678" stroke="#666666" stroke-miterlimit="10"/>
<path d="M0.844238 262.695C154.887 143.851 363.023 12.4265 568.908 64.7916C718.603 102.864 846.738 245.743 1008.27 236.973C1077.15 233.24 1137.46 196.548 1185.62 149.859C1224.21 112.452 1258.56 67.8855 1314.01 56.1493C1434.16 30.7338 1503.27 164.076 1555.6 247.328C1587.05 297.367 1619.95 352.442 1673.96 380.747C1759.44 425.518 1844.45 376.093 1919.03 331.833" stroke="#666666" stroke-miterlimit="10"/>
<path d="M0.844238 239.018C159.823 123.881 373.023 2.9659 578.704 53.8992C726.966 90.6162 860.549 222.91 1019.6 212.043C1083.67 207.671 1138.43 175.479 1184.21 132.447C1222.7 96.2669 1257.28 52.1605 1312.27 42.0096C1426.52 20.8897 1500.94 146.101 1556.7 223.677C1588.69 268.192 1622.6 313.603 1671.38 340.578C1756.24 387.471 1841.76 344.541 1919.03 302.403" stroke="#666666" stroke-miterlimit="10"/>
<path d="M0.844238 215.341C160.923 107.568 367.473 3.52842 568.192 41.3449C723.539 70.6213 863.925 200.409 1027.07 188.98C1088.94 184.633 1141.63 153.081 1186.69 112.529C1223.55 79.3403 1257.02 41.0892 1308.1 31.4497C1413.83 11.4804 1492.55 119.33 1550.66 189.798C1588.69 235.95 1630.25 286.602 1687.16 310.202C1767.62 343.569 1846.83 307.926 1919.05 271.772" stroke="#666666" stroke-miterlimit="10"/>
<path d="M0.844238 191.664C164.913 90.2582 375.734 -2.7871 574.586 35.2339C726.174 64.229 873.465 179.391 1032.01 167.706C1147.15 159.218 1197.41 46.3819 1301.19 23.5233C1405.54 0.562426 1490.51 102.173 1554.65 167.937C1593.22 207.492 1633.47 249.041 1685.55 270.519C1766.16 303.759 1844.4 274.278 1919 240.271" stroke="#666666" stroke-miterlimit="10"/>
<path d="M0.844238 167.988C169.235 73.8686 376.067 -2.53135 573.051 29.1485C725.867 53.7203 875.869 158.118 1034.11 146.28C1142.8 138.149 1200.91 36.7681 1301.25 17.1056C1399.07 -2.04554 1483.24 78.6244 1550.43 137.561C1591.91 173.971 1634.6 212.171 1686.85 232.396C1766.88 263.385 1843.43 239.606 1919.05 208.336" stroke="#666666" stroke-miterlimit="10"/>
<path d="M0.844238 144.311C171.767 59.6267 376.297 -2.91486 569.726 24.6484C722.644 46.4332 876.201 136.743 1033.13 125.364C1137.43 117.796 1204.9 29.8389 1303.39 11.9407C1400.56 -5.72744 1489.05 67.1695 1561.71 120.43C1601.17 149.348 1642.3 178.599 1688.85 195.065C1769.08 223.447 1842.3 204.73 1919.03 176.298" stroke="#666666" stroke-miterlimit="10"/>
<path d="M0.844238 120.634C173.583 46.791 375.248 -2.65926 564.867 20.7619C718.04 39.6829 873.03 115.188 1029.12 104.858C1131.55 98.0823 1209.86 24.5205 1308.69 8.48879C1399.89 -6.29004 1485.88 48.7343 1560.51 93.531C1681.81 166.351 1781.92 189.338 1919.03 144.464" stroke="#666666" stroke-miterlimit="10"/>
<path d="M0.844238 96.9573C174.606 35.2595 365.887 1.2784 550.928 16.901C707.299 30.1201 862.799 91.8435 1020.78 83.9171C1126.74 78.5988 1217.54 15.8527 1321.83 5.21601C1408 -3.5797 1489.33 35.5663 1565.14 71.3628C1686.72 128.816 1786.95 150.499 1919.03 113.296" stroke="#666666" stroke-miterlimit="10"/>
<path d="M0.844238 73.2804C177.726 24.2393 366.578 1.40622 550.238 14.4208C703.513 25.2876 857.377 70.9281 1011.68 64.3058C1120.04 59.6522 1221.17 13.577 1328.69 4.11652C1419.18 -3.83541 1504.14 27.7166 1588.28 56.8141C1701.3 95.9089 1800.89 110.458 1919.03 83.15" stroke="#666666" stroke-miterlimit="10"/>
<path d="M0.844238 49.6292C175.143 15.8782 355.708 2.5568 533.23 10.4832C687.81 17.3868 842.211 47.6604 997.226 43.5694C1115.9 40.4499 1231.68 8.82119 1350.09 2.65908C1434.6 -1.73877 1516.29 17.7192 1598.05 36.6146C1706.95 61.7744 1807.9 73.485 1919.03 54.3339" stroke="#666666" stroke-miterlimit="10"/>
<path d="M0.844238 25.9524C173.762 8.05415 348.445 2.55683 522.258 6.46888C675.073 9.92068 827.812 25.1342 980.755 23.0887C1110.83 21.35 1240.25 5.08816 1370.27 1.86647C1554.7 -2.71036 1734.04 45.8706 1919.03 27.2564" stroke="#666666" stroke-miterlimit="10"/>
<path d="M0.844238 2.27559C640.213 -1.25293 1279.66 6.13649 1919.03 2.27559" stroke="#666666" stroke-miterlimit="10"/>
</g>
</g>
<defs>
<clipPath id="clip0_89_3785">
<rect width="1920" height="1282" fill="white"/>
</clipPath>
</defs>
</svg>
