<svg width="1924" height="1286" viewBox="0 0 1924 1286" fill="none" xmlns="http://www.w3.org/2000/svg">
<g clip-path="url(#clip0_202_3266)">
<path d="M0.844238 1284.69C641.52 1281.97 1282.35 1280.77 1923.02 1284.69" stroke="url(#paint0_linear_202_3266)" stroke-miterlimit="10"/>
<path d="M0.844238 1259.12C186.322 1246.71 374.644 1242.47 560.378 1252.27C636.24 1256.27 712.307 1258.25 788.195 1254.04C870.951 1249.45 949.735 1231.14 1031.39 1219.95C1176.6 1200.05 1323.84 1246.81 1468.44 1254.61C1620.76 1262.84 1770.33 1241.45 1923.02 1260.94" stroke="url(#paint1_linear_202_3266)" stroke-miterlimit="10"/>
<path d="M0.844238 1230.55C193.498 1209.23 393.174 1205.33 586.289 1224.47C663.715 1232.14 741.781 1236.19 819.334 1228.06C910.856 1218.49 990.28 1183.25 1078.34 1161.73C1225.43 1125.8 1370.64 1213.05 1515.04 1227.24C1578.42 1233.47 1641.16 1219.85 1704.38 1215.77C1779.14 1210.93 1850.47 1218.65 1923.02 1237.19" stroke="url(#paint2_linear_202_3266)" stroke-miterlimit="10"/>
<path d="M0.844238 1199.56C199.418 1170.76 403.579 1174.3 602.307 1201C680.502 1211.49 758.747 1217.26 837.121 1205.1C877.897 1198.77 917.673 1188.12 956.578 1174.4C1009.48 1155.76 1058.25 1121.49 1110.71 1104.36C1257.95 1056.26 1397.68 1178.97 1537.31 1200.9C1601.38 1210.95 1659.84 1190.1 1722.96 1182.89C1793.26 1174.86 1857.29 1188.61 1923.05 1213.46" stroke="url(#paint3_linear_202_3266)" stroke-miterlimit="10"/>
<path d="M0.844238 1166.63C195.241 1132.54 393.84 1143.21 587.545 1177.71C671.608 1192.69 755.8 1202.56 840.376 1185.38C947.762 1163.55 1026.96 1098.94 1125.27 1057.65C1284.71 990.681 1411.67 1153.14 1560.4 1177.84C1619.12 1187.59 1667.53 1162.71 1723.73 1151.86C1795.88 1137.93 1858.21 1158.42 1923.02 1189.74" stroke="url(#paint4_linear_202_3266)" stroke-miterlimit="10"/>
<path d="M0.844238 1132.29C195.395 1092.33 386.229 1115.97 577.908 1159.24C662.228 1178.28 746.778 1188.69 831.841 1167.63C876 1156.7 917.724 1138.88 958.013 1117.95C1018.32 1086.63 1071.68 1034.31 1132.19 1006.33C1294.83 931.099 1410.88 1120.8 1555.56 1152.29C1621.4 1166.63 1665.2 1135.13 1725.91 1119.67C1798.08 1101.3 1861 1130.93 1923.02 1165.99" stroke="url(#paint5_linear_202_3266)" stroke-miterlimit="10"/>
<path d="M0.844238 1097.07C191.55 1051.75 366.469 1089.58 551.254 1139.93C637.06 1163.3 722.815 1177.43 810.185 1153.19C856.419 1140.37 899.451 1119.23 940.765 1095.15C1005.5 1057.42 1061.35 997.273 1126.52 963.057C1297.7 873.21 1399.22 1093.51 1547.15 1128.59C1616.68 1145.09 1657.4 1107.28 1719.32 1087.76C1794.26 1064.14 1860.87 1103.38 1923 1142.24" stroke="url(#paint6_linear_202_3266)" stroke-miterlimit="10"/>
<path d="M0.844238 1061.47C182.964 1011.25 337.636 1060.86 510.222 1117.64C595.823 1145.8 681.194 1166.89 770.408 1143.8C906.14 1108.69 994.612 1001.84 1108.69 929.842C1293.93 812.961 1376.48 1073.24 1538.1 1106.38C1608.07 1120.75 1647.64 1076.09 1709.48 1054.52C1787.81 1027.2 1860.11 1076.4 1923.02 1118.44" stroke="url(#paint7_linear_202_3266)" stroke-miterlimit="10"/>
<path d="M0.844238 1026.05C177.557 968.931 313.237 1033.13 475.52 1096.76C563.146 1131.11 651.771 1158.96 745.138 1130.57C883.561 1088.48 973.775 973.83 1088.21 894.088C1282.76 758.535 1346.63 1048.19 1513.73 1082.25C1584.85 1096.74 1628.75 1047.19 1689.65 1023C1775.66 988.834 1854.62 1046.98 1923.02 1094.76" stroke="url(#paint8_linear_202_3266)" stroke-miterlimit="10"/>
<path d="M0.844238 991.271C80.0124 961.082 157.284 954.132 239.169 978.498C314.775 1000.99 379.693 1046.42 451.045 1078.55C535.313 1116.51 621.888 1149.81 714.101 1119.57C860.572 1071.53 948.736 941.076 1068.27 854.538C1261.82 714.393 1318.13 1013.12 1477.03 1053.42C1557.48 1073.81 1604.1 1014.69 1672.5 987.654C1764.94 951.105 1851.31 1019.33 1923.02 1071.01" stroke="url(#paint9_linear_202_3266)" stroke-miterlimit="10"/>
<path d="M0.844238 957.696C72.0931 925.404 143.086 915.35 218.333 940.588C292.452 965.442 352.654 1017.77 420.93 1053.98C500.355 1096.12 582.086 1138.42 673.479 1111.43C826.715 1066.24 922.901 919.736 1041.82 824.938C1244.6 663.275 1278.25 988.372 1444.38 1025.79C1529.62 1045 1582.7 976.445 1655.89 949.719C1754.36 913.786 1848.8 992.296 1923 1047.24" stroke="url(#paint10_linear_202_3266)" stroke-miterlimit="10"/>
<path d="M0.844238 925.815C165.511 837.327 264.414 941.999 398.531 1026.59C474.7 1074.63 556.713 1130.21 650.054 1099.28C801.215 1049.19 900.655 898.576 1015.24 798.418C1089.21 733.783 1160.02 718.779 1223.38 800.547C1278.33 871.44 1313.62 973.547 1411.39 994.092C1496.53 1011.97 1556.66 941.794 1629.7 913.196C1737.19 871.081 1843.6 963.159 1923.02 1023.51" stroke="url(#paint11_linear_202_3266)" stroke-miterlimit="10"/>
<path d="M0.844238 896.166C160.334 795.854 259.723 900.013 385.511 994.554C452.608 1044.98 528.572 1114.82 619.222 1091.15C674.402 1076.73 723.328 1035.77 765.462 999.607C846.45 930.125 913.675 848.151 990.562 774.745C1064.27 704.365 1136.93 676.664 1200.13 769.512C1247.24 838.713 1283.37 945.616 1378.07 960.723C1468.11 975.087 1534 897.782 1612.96 871.056C1726.86 832.48 1841.68 936.152 1923.02 999.709" stroke="url(#paint12_linear_202_3266)" stroke-miterlimit="10"/>
<path d="M0.844238 869.285C63.0204 824.528 131.629 796.443 207.389 823.707C274.845 847.997 327.282 904.424 379.129 951.438C437.564 1004.43 511.375 1098.51 601.077 1080.01C651.566 1069.6 695.982 1030.92 733.708 997.99C816.976 925.276 889.968 841.046 964.83 760.022C1034.9 684.153 1112.56 629.572 1177.91 735.168C1221.92 806.241 1256.08 918.659 1355.88 922.609C1444.45 926.123 1511.01 855.332 1590.85 829.222C1713.3 789.184 1837.53 906.86 1923.05 975.984" stroke="url(#paint13_linear_202_3266)" stroke-miterlimit="10"/>
<path d="M0.844238 844.612C64.6606 794.853 135.756 761.818 216.359 790.493C284.379 814.68 340.711 869.824 390.996 919.403C443.279 970.983 513.451 1072.29 599.052 1055.01C646.953 1045.34 689.087 1006.58 724.404 975.138C805.161 903.193 877.282 821.169 950.248 741.581C1017.06 668.713 1095.54 602.283 1161.82 707.391C1205.18 776.155 1238.11 885.906 1336.04 887.265C1423.85 888.471 1497.07 824.683 1579.06 802.83C1706.66 768.794 1831.38 880.366 1923.02 951.644" stroke="url(#paint14_linear_202_3266)" stroke-miterlimit="10"/>
<path d="M0.844238 817.116C71.2473 761.689 146.366 731.885 232.429 770.358C303.6 802.188 365.93 862.411 421.007 915.735C470.42 963.595 531.648 1044.36 609.56 1019.2C657.102 1003.84 698.442 962.8 733.913 929.816C805.008 863.719 871.079 792.134 938.151 722.01C1002.07 655.144 1079.62 590.099 1148.33 683.332C1197.21 749.66 1228.32 855.743 1325.89 860.59C1412.8 864.899 1496.84 807.523 1580.62 792.134C1707.33 768.845 1825.17 856.256 1923.05 923.609" stroke="url(#paint15_linear_202_3266)" stroke-miterlimit="10"/>
<path d="M0.844238 786.568C76.5525 728.756 153.696 703.338 242.142 748.993C309.905 783.952 372.44 840.251 428.183 891.625C480.133 939.511 543.924 1022.02 622.426 985.5C663.407 966.443 697.135 930.15 729.325 899.448C797.037 834.813 861.084 766.28 927.207 700.055C995.611 631.547 1073.11 578.429 1144.08 669.508C1192.93 732.219 1228.12 830.94 1320.74 835.044C1405.96 838.84 1490.61 797.982 1573.78 784.388C1702.15 763.407 1816.13 828.914 1923.05 892.036" stroke="url(#paint16_linear_202_3266)" stroke-miterlimit="10"/>
<path d="M0.844238 753.533C88.1625 690.488 171.457 676.227 264.439 734.886C331.254 777.027 393.02 834.121 452.813 885.598C502.738 928.585 558.892 996.067 628.756 956.978C666.175 936.049 697.314 898.73 727.121 868.541C790.578 804.24 852.37 738.374 917.673 675.92C985.334 611.208 1062.78 564.502 1134.8 646.27C1188.57 707.314 1225.81 804.676 1318.2 813.499C1399.63 821.271 1488.36 789.415 1568.45 777.001C1696.44 757.175 1809.05 802.445 1923 857.718" stroke="url(#paint17_linear_202_3266)" stroke-miterlimit="10"/>
<path d="M0.844238 718.625C95.4411 654.94 182.426 648.117 277.228 714.752C348.759 765.024 413.037 828.556 481.056 883.649C527.829 921.506 579.574 973.419 638.034 929.919C676.683 901.167 708.232 857.846 740.32 822.554C794.577 762.921 850.192 704.082 909.882 649.861C983.027 583.405 1062.35 552.011 1136.01 632.112C1189.93 690.745 1231.24 782.26 1319.84 792.186C1403.7 801.573 1494.38 779.541 1577.44 768.127C1699.59 751.353 1808.31 778.669 1923.02 821.169" stroke="url(#paint18_linear_202_3266)" stroke-miterlimit="10"/>
<path d="M0.844238 682.384C108.691 614.902 200.367 622.084 299.372 701.184C374.49 761.202 438.512 831.043 516.809 887.676C570.527 926.508 609.253 948.438 658.281 894.319C741.601 802.343 809.083 697.516 906.704 618.211C978.363 560.014 1057.2 538.315 1128.6 606.053C1188.93 663.275 1229.53 751.122 1316.61 771.744C1397.01 790.749 1497.92 772 1578.75 760.971C1698.05 744.684 1805.72 754.251 1923.05 783.183" stroke="url(#paint19_linear_202_3266)" stroke-miterlimit="10"/>
<path d="M0.844238 645.424C121.608 574.916 219.947 597.82 321.771 688.078C394.712 752.738 455.376 827.607 538.158 880.725C598.924 919.737 630.909 926.636 672.48 864.515C738.346 766.101 804.649 665.507 900.604 592.921C978.183 534.211 1056.79 521.028 1132.6 588.715C1195.72 645.091 1240.65 735.784 1329.92 755.739C1409.08 773.437 1501.48 765.024 1581.29 754.149C1697.16 738.349 1806 731.219 1923.05 744.274" stroke="url(#paint20_linear_202_3266)" stroke-miterlimit="10"/>
<path d="M0.844238 608.336C132.475 535.622 235.453 571.453 339.789 670.944C413.626 741.35 474.495 827.35 565.401 877.262C632.883 914.325 656.564 895.063 688.754 831.531C739.961 730.501 804.726 628.393 899.579 562.578C979.875 506.844 1061.09 505.125 1136.52 569.17C1202.31 625.059 1250.24 713.393 1338.37 738.169C1527.41 791.314 1733.14 711.88 1923.05 705.288" stroke="url(#paint21_linear_202_3266)" stroke-miterlimit="10"/>
<path d="M0.844238 571.684C66.3265 536.776 127.888 516.052 201.161 541.47C261.774 562.501 311.417 606.643 355.884 651.605C429.234 725.832 491.948 825.708 589.672 869.824C662.971 902.911 680.322 858.333 705.054 796.135C745.369 694.669 806.238 590.715 901.347 531.313C1108.64 401.812 1183.45 663.839 1348.37 720.651C1540.97 787.004 1734.7 703.287 1923.05 666.789" stroke="url(#paint22_linear_202_3266)" stroke-miterlimit="10"/>
<path d="M0.844238 536.058C69.1457 499.893 132.091 479.734 206.697 507.203C269.283 530.236 319.875 577.301 365.213 624.982C436.513 699.953 510.248 829.736 616.608 859.591C691.061 880.494 702.799 810.781 721.662 754.662C754.672 656.427 811.569 548.113 906.755 496.149C1104.36 388.27 1203.87 630.83 1353.06 699.389C1548.79 789.339 1738.32 697.106 1923.02 629.445" stroke="url(#paint23_linear_202_3266)" stroke-miterlimit="10"/>
<path d="M0.844238 502.073C69.8121 464.524 131.937 444.133 207.85 470.731C270.795 492.789 322.233 542.008 366.981 589.971C439.588 667.815 517.424 815.68 630.32 837.738C707.053 852.742 717.817 776.027 734.579 718.42C763.36 619.596 815.182 510.204 914.649 464.242C1112.53 372.804 1219.25 605.668 1365.21 680.973C1441.2 720.164 1539.59 740.247 1624.24 726.602C1731.55 709.315 1829.68 645.68 1923.05 594.05" stroke="url(#paint24_linear_202_3266)" stroke-miterlimit="10"/>
<path d="M0.844238 470.269C74.2972 427.769 145.29 403.274 226.611 440.003C287.634 467.576 336.047 518.257 379.796 567.452C445.355 641.166 527.983 796.469 638.265 808.113C721.277 816.885 731.76 726.166 749.546 664.917C777.046 570.247 826.562 468.755 926.233 432.232C1122.63 360.236 1236.19 576.121 1377.89 660.48C1449.5 703.108 1543.1 732.296 1626.85 721.857C1739.06 707.853 1836.17 626.598 1923 561.065" stroke="url(#paint25_linear_202_3266)" stroke-miterlimit="10"/>
<path d="M0.844238 441.26C70.1965 397.042 138.472 366.264 220.408 399.376C286.07 425.922 338.353 482.273 383.461 534.929C447.943 610.208 529.034 764.767 643.596 767.486C725.276 769.41 740.397 677.382 759.67 615.928C789.476 520.976 836.608 428.872 941.149 402.018C1141.34 350.567 1252.49 547.959 1395.73 642.654C1465.85 689.027 1559.37 727.269 1644.8 714.932C1756.51 698.773 1846.27 605.848 1923.02 531.313" stroke="url(#paint26_linear_202_3266)" stroke-miterlimit="10"/>
<path d="M0.844238 415.637C64.5069 369.443 130.63 330.74 211.592 357.876C274.691 379.01 324.386 430.769 366.853 479.861C436.41 560.244 506.378 703.235 626.117 712.366C717.151 719.292 740.807 630.752 767 560.706C802.727 465.139 852.524 384.217 961.934 369.418C1155.9 343.179 1267.66 510.075 1402.42 615.132C1469.98 667.789 1561.45 718.214 1649.84 709.596C1767.1 698.157 1853.39 589.048 1923.02 505.407" stroke="url(#paint27_linear_202_3266)" stroke-miterlimit="10"/>
<path d="M0.844238 395.426C64.1993 351.182 129.528 314.761 208.875 340.615C270.667 360.749 319.849 410.225 361.804 457.829C429.388 534.468 500.919 681.589 617.223 685.615C707.156 688.719 737.936 609.003 770.178 538.931C811.517 449.134 867.466 366.93 973.57 352.593C1160.74 327.303 1277.66 483.222 1410.49 582.944C1475.67 631.856 1567.6 681.614 1651.31 679.973C1768.33 677.664 1855.01 566.272 1923.02 484.966" stroke="url(#paint28_linear_202_3266)" stroke-miterlimit="10"/>
<path d="M0.844238 381.601C63.1998 338.896 127.58 303.475 205.364 327.021C265.464 345.206 313.929 391.527 355.217 436.874C421.725 509.947 492.948 655.529 605.485 656.222C693.726 656.76 731.298 586.483 769.819 518.027C816.874 434.412 878.64 354.183 980.977 340.127C1161.38 315.376 1283.25 455.213 1416.16 548.292C1480.69 593.485 1571.62 643.91 1651.48 651.041C1767.92 661.428 1856 548.933 1923 470.551" stroke="url(#paint29_linear_202_3266)" stroke-miterlimit="10"/>
<path d="M0.844238 373.034C60.6625 332.125 124.607 296.755 199.316 315.735C263.004 331.894 313.596 380.088 356.96 426.743C422.878 497.661 488.976 629.393 599.104 624.494C682.424 620.801 724.891 557.5 768.409 495.199C821.846 418.663 886.354 346.898 984.206 332.997C1161.89 307.733 1286.37 428.615 1424.62 514.846C1488.48 554.704 1569.52 601.975 1643.1 621.032C1762.38 651.913 1853.21 540.059 1923.02 461.061" stroke="url(#paint30_linear_202_3266)" stroke-miterlimit="10"/>
<path d="M0.844238 368.623C59.0222 328.329 121.608 292.19 195.087 307.143C256.264 319.608 305.984 362.493 348.605 405.557C415.446 473.064 477.673 594.306 584.367 589.561C665.303 585.97 713.973 532.672 763.488 475.244C822.82 406.455 891.301 341.102 985.385 327.405C1155.56 302.629 1285.96 399.273 1425.82 476.168C1495.22 514.333 1568.22 560.988 1641.08 591.869C1758.38 641.602 1850.6 533.98 1923 455.469" stroke="url(#paint31_linear_202_3266)" stroke-miterlimit="10"/>
<path d="M0.844238 367.264C123.249 280.417 229.122 280.853 340.276 383.833C408.526 447.057 466.524 555.577 569.476 551.883C647.773 549.062 702.209 505.869 757.389 455.162C822.41 395.426 894.043 337.64 984.385 324.2C1146.54 300.064 1283.84 369.957 1424.95 436.259C1502.63 472.757 1565.47 518.54 1637.82 562.938C1752.08 633.036 1845.34 532.954 1923.05 452.802" stroke="url(#paint32_linear_202_3266)" stroke-miterlimit="10"/>
<path d="M0.844238 367.853C114.765 284.341 219.614 268.131 332.433 361.082C402.477 418.791 456.427 513.332 555.201 511.383C719.663 508.151 820.949 346.949 981.695 322.634C1135.67 299.345 1280.32 340.64 1421.95 395.348C1508.53 428.794 1563.04 476.167 1633.26 533.954C1743.42 624.597 1837.04 535.929 1923.02 451.878" stroke="url(#paint33_linear_202_3266)" stroke-miterlimit="10"/>
<path d="M0.844238 369.289C105.026 289.83 209.055 256.179 322.848 334.894C393.2 383.55 444.791 464.856 535.697 467.986C699.16 473.654 820.795 345.513 977.671 321.018C1120.81 298.678 1273.79 311.067 1411.88 352.515C1510.19 382.037 1560.4 435.719 1629.7 507.382C1655.59 534.159 1684.7 562.039 1723.58 566.246C1800.93 574.582 1873.28 497.866 1923.02 451.801" stroke="url(#paint34_linear_202_3266)" stroke-miterlimit="10"/>
<path d="M0.844238 370.469C97.7734 293.574 201.315 244.714 317.645 309.092C389.612 348.924 439.665 416.534 525.497 421.536C685.192 430.846 819.719 345.205 973.339 321.326C1111.15 299.91 1267.3 282.058 1404.93 311.605C1510.81 334.33 1558.43 397.708 1622.6 478.707C1647.18 509.742 1675.01 545.445 1715.63 555.191C1794.11 574.017 1871.54 496.635 1923 451.519" stroke="url(#paint35_linear_202_3266)" stroke-miterlimit="10"/>
<path d="M0.844238 370.264C95.4411 292.292 200.572 231.941 322.361 283.956C388.766 312.324 438.179 364.314 512.067 371.547C670.865 387.115 815.259 344.872 970.315 322.096C1052.02 310.092 1132.52 298.191 1213.54 281.853C1276.51 269.157 1337.71 262.565 1401.73 271.747C1512.34 287.598 1559.07 366.699 1616.42 452.879C1639.39 487.376 1666.99 530.209 1708.71 543.931C1788.68 570.247 1868.43 495.353 1923.02 449.878" stroke="url(#paint36_linear_202_3266)" stroke-miterlimit="10"/>
<path d="M0.844238 367.596C91.9556 290.086 197.137 218.27 321.669 251.485C387.689 269.105 440.972 310.092 509.581 318.761C666.098 338.511 811.107 342.999 967.496 321.198C1050.3 309.656 1127.93 292.651 1206.92 265.258C1267.74 244.175 1326.1 226.888 1391.3 231.504C1507.4 239.712 1554.56 333.15 1606.97 423.895C1629.29 462.548 1656.25 512.281 1699.51 531.081C1781.01 566.502 1865 492.07 1923.08 445.979" stroke="url(#paint37_linear_202_3266)" stroke-miterlimit="10"/>
<path d="M0.844238 361.365C90.6741 283.136 195.446 203.24 321.464 215.347C389.125 221.836 451.045 253.845 518.218 263.746C671.762 286.394 806.827 338.076 964.549 318.813C1048 308.605 1122.99 286.804 1198.18 249.511C1254.82 221.425 1308.8 193.007 1373.69 192.186C1499.84 190.647 1547.48 300.911 1598.28 398.171C1620.22 440.183 1646.59 494.84 1691.29 517.36C1774.22 559.167 1861.67 485.53 1923.02 438.67" stroke="url(#paint38_linear_202_3266)" stroke-miterlimit="10"/>
<path d="M0.844238 350.463C92.5194 269.696 197.573 184.593 324.821 176.181C393.43 171.641 465.653 192.057 532.417 205.907C682.578 237.045 807.596 331.766 967.06 314.53C1049.05 305.681 1121.45 278.981 1190.19 233.941C1245.65 197.597 1296.47 158.637 1365.34 154.61C1494.22 147.095 1541.43 275.159 1588.46 372.342C1610.81 418.484 1636.47 474.295 1682.55 501.611C1765.3 550.652 1860.72 473.167 1923.02 426.999" stroke="url(#paint39_linear_202_3266)" stroke-miterlimit="10"/>
<path d="M0.844238 333.741C157.72 195.853 323.053 89.5393 536.62 141.196C688.652 177.976 805.751 321.019 970.7 307.528C1054.28 300.679 1124.68 267.105 1188.26 213.936C1238.06 172.308 1282.43 126.653 1350.37 119.292C1479.95 105.262 1527.44 236.429 1571.85 333.484C1596.1 386.449 1622.34 452.699 1674.96 484.247C1759.79 535.108 1858.31 456.957 1923 409.866" stroke="url(#paint40_linear_202_3266)" stroke-miterlimit="10"/>
<path d="M0.844238 311.016C151.799 181.952 345.991 39.191 557.174 98.3882C705.413 139.939 817.412 298.166 980.336 289.804C1061.81 285.624 1131.03 246.561 1188.55 191.211C1234.17 147.326 1274.94 97.824 1342.04 90.3858C1466.34 76.5612 1516.93 206.036 1560.73 298.089C1586.95 353.157 1614.42 420.561 1668.35 454.443C1754.69 508.69 1854.42 434.617 1923 386.808" stroke="url(#paint41_linear_202_3266)" stroke-miterlimit="10"/>
<path d="M0.844238 287.265C152.338 163.69 351.219 27.2385 559.071 78.4846C711.846 116.137 832.866 273.158 998.277 262.411C1073.24 257.538 1136.06 221.091 1188.7 169.691C1230.71 128.679 1267.54 81.9472 1328.87 71.9185C1451.19 51.9125 1511.63 184.645 1559.09 272.671C1586.36 323.199 1615.94 381.755 1665.43 414.354C1751.98 471.371 1849.37 408.25 1923.02 360.8" stroke="url(#paint42_linear_202_3266)" stroke-miterlimit="10"/>
<path d="M0.844238 263.514C155.208 144.299 363.778 12.465 570.092 64.9935C720.099 103.184 848.5 246.509 1010.37 237.712C1079.39 233.967 1139.83 197.161 1188.09 150.327C1226.76 112.803 1261.18 68.097 1316.74 56.3242C1437.15 30.8294 1506.4 164.587 1558.84 248.1C1590.36 298.294 1623.32 353.541 1677.45 381.934C1763.1 426.845 1848.29 377.266 1923.02 332.868" stroke="url(#paint43_linear_202_3266)" stroke-miterlimit="10"/>
<path d="M0.844238 239.764C160.155 124.268 373.799 2.97524 579.908 54.0674C728.479 90.899 862.34 223.605 1021.73 212.705C1085.93 208.319 1140.8 176.027 1186.68 132.86C1225.25 96.5673 1259.9 52.3233 1315 42.1408C1429.49 20.955 1504.07 146.557 1559.94 224.375C1592 269.029 1625.98 314.581 1674.86 341.641C1759.9 388.68 1845.6 345.616 1923.02 303.347" stroke="url(#paint44_linear_202_3266)" stroke-miterlimit="10"/>
<path d="M0.844238 216.013C161.257 107.904 368.237 3.53969 569.374 41.4741C725.045 70.8419 865.723 201.035 1029.21 189.57C1091.21 185.209 1144 153.559 1189.16 112.88C1226.09 79.5881 1259.64 41.2176 1310.82 31.5481C1416.77 11.5164 1495.66 119.703 1553.89 190.39C1592 236.686 1633.65 287.496 1690.67 311.17C1771.3 344.642 1850.67 308.887 1923.05 272.62" stroke="url(#paint45_linear_202_3266)" stroke-miterlimit="10"/>
<path d="M0.844238 192.262C165.255 90.5392 376.515 -2.79636 575.781 35.3432C727.685 64.4289 875.283 179.951 1034.16 168.229C1149.54 159.714 1199.9 46.5261 1303.9 23.5961C1408.47 0.563621 1493.61 102.492 1557.89 168.46C1596.54 208.139 1636.88 249.818 1689.06 271.363C1769.84 304.706 1848.24 275.133 1923 241.02" stroke="url(#paint46_linear_202_3266)" stroke-miterlimit="10"/>
<path d="M0.844238 168.512C169.586 74.0991 376.848 -2.53922 574.243 29.2395C727.377 53.8879 877.692 158.612 1036.26 146.736C1145.18 138.58 1203.41 36.8828 1303.95 17.159C1401.99 -2.05189 1486.33 78.8697 1553.66 137.99C1595.23 174.514 1638 212.833 1690.36 233.121C1770.56 264.207 1847.26 240.354 1923.05 208.986" stroke="url(#paint47_linear_202_3266)" stroke-miterlimit="10"/>
<path d="M0.844238 144.761C172.123 59.8125 377.079 -2.92423 570.912 24.7251C724.148 46.5778 878.025 137.169 1035.28 125.755C1139.8 118.163 1207.41 29.9318 1306.11 11.9777C1403.47 -5.74558 1492.15 67.3788 1564.96 120.805C1604.51 149.814 1645.72 179.156 1692.36 195.674C1772.76 224.144 1846.14 205.369 1923.02 176.847" stroke="url(#paint48_linear_202_3266)" stroke-miterlimit="10"/>
<path d="M0.844238 121.01C173.943 46.9366 376.028 -2.66796 566.042 20.8262C719.535 39.8063 874.847 115.547 1031.26 105.185C1133.91 98.3879 1212.38 24.5966 1311.41 8.51487C1402.81 -6.31007 1488.97 48.8859 1563.76 93.8224C1685.32 166.87 1785.63 189.928 1923.02 144.915" stroke="url(#paint49_linear_202_3266)" stroke-miterlimit="10"/>
<path d="M0.844238 97.2601C174.968 35.3698 366.648 1.28272 552.074 16.9541C708.77 30.2144 864.595 92.1304 1022.91 84.1793C1129.09 78.8444 1220.07 15.9025 1324.59 5.23262C1410.93 -3.59053 1492.43 35.6776 1568.4 71.5858C1690.24 129.218 1790.68 150.969 1923.02 113.65" stroke="url(#paint50_linear_202_3266)" stroke-miterlimit="10"/>
<path d="M0.844238 73.5087C178.095 24.3145 367.34 1.4102 551.382 14.4654C704.977 25.3661 859.162 71.149 1013.78 64.506C1122.37 59.8379 1223.71 13.619 1331.45 4.12896C1422.13 -3.84778 1507.27 27.8027 1591.59 56.9909C1704.84 96.2078 1804.64 110.802 1923.02 83.4091" stroke="url(#paint51_linear_202_3266)" stroke-miterlimit="10"/>
<path d="M0.844238 49.7844C175.506 15.9281 356.448 2.56516 534.339 10.5163C689.241 17.4414 843.964 47.8095 999.302 43.7057C1118.22 40.5765 1234.24 8.84909 1352.91 2.66775C1437.58 -1.74382 1519.44 17.7748 1601.38 36.7292C1710.51 61.9675 1811.67 73.7146 1923.02 54.5038" stroke="url(#paint52_linear_202_3266)" stroke-miterlimit="10"/>
<path d="M0.844238 26.0334C174.122 8.0793 349.169 2.56483 523.344 6.48908C676.478 9.95165 829.535 25.2126 982.797 23.1607C1113.15 21.4166 1242.83 5.10405 1373.13 1.87231C1557.94 -2.71881 1737.65 46.0137 1923.02 27.3415" stroke="url(#paint53_linear_202_3266)" stroke-miterlimit="10"/>
<path d="M0.844238 2.28256C641.545 -1.25696 1282.32 6.15552 1923.02 2.28256" stroke="url(#paint54_linear_202_3266)" stroke-miterlimit="10"/>
</g>
<defs>
<linearGradient id="paint0_linear_202_3266" x1="961.934" y1="1282.18" x2="961.934" y2="1284.69" gradientUnits="userSpaceOnUse">
<stop stop-color="#333333"/>
<stop offset="1" stop-color="#333333" stop-opacity="0"/>
</linearGradient>
<linearGradient id="paint1_linear_202_3266" x1="961.934" y1="1215.06" x2="961.934" y2="1260.94" gradientUnits="userSpaceOnUse">
<stop stop-color="#333333"/>
<stop offset="1" stop-color="#333333" stop-opacity="0"/>
</linearGradient>
<linearGradient id="paint2_linear_202_3266" x1="961.934" y1="1153.12" x2="961.934" y2="1237.19" gradientUnits="userSpaceOnUse">
<stop stop-color="#333333"/>
<stop offset="1" stop-color="#333333" stop-opacity="0"/>
</linearGradient>
<linearGradient id="paint3_linear_202_3266" x1="961.947" y1="1093.28" x2="961.947" y2="1213.46" gradientUnits="userSpaceOnUse">
<stop stop-color="#333333"/>
<stop offset="1" stop-color="#333333" stop-opacity="0"/>
</linearGradient>
<linearGradient id="paint4_linear_202_3266" x1="961.934" y1="1041.58" x2="961.934" y2="1194.45" gradientUnits="userSpaceOnUse">
<stop stop-color="#333333"/>
<stop offset="1" stop-color="#333333" stop-opacity="0"/>
</linearGradient>
<linearGradient id="paint5_linear_202_3266" x1="961.934" y1="988.824" x2="961.934" y2="1179.26" gradientUnits="userSpaceOnUse">
<stop stop-color="#333333"/>
<stop offset="1" stop-color="#333333" stop-opacity="0"/>
</linearGradient>
<linearGradient id="paint6_linear_202_3266" x1="961.922" y1="941.686" x2="961.922" y2="1165.81" gradientUnits="userSpaceOnUse">
<stop stop-color="#333333"/>
<stop offset="1" stop-color="#333333" stop-opacity="0"/>
</linearGradient>
<linearGradient id="paint7_linear_202_3266" x1="961.934" y1="899.861" x2="961.934" y2="1153.66" gradientUnits="userSpaceOnUse">
<stop stop-color="#333333"/>
<stop offset="1" stop-color="#333333" stop-opacity="0"/>
</linearGradient>
<linearGradient id="paint8_linear_202_3266" x1="961.934" y1="858.197" x2="961.934" y2="1142.29" gradientUnits="userSpaceOnUse">
<stop stop-color="#333333"/>
<stop offset="1" stop-color="#333333" stop-opacity="0"/>
</linearGradient>
<linearGradient id="paint9_linear_202_3266" x1="961.934" y1="817.397" x2="961.934" y2="1131.32" gradientUnits="userSpaceOnUse">
<stop stop-color="#333333"/>
<stop offset="1" stop-color="#333333" stop-opacity="0"/>
</linearGradient>
<linearGradient id="paint10_linear_202_3266" x1="961.922" y1="780.146" x2="961.922" y2="1119.92" gradientUnits="userSpaceOnUse">
<stop stop-color="#333333"/>
<stop offset="1" stop-color="#333333" stop-opacity="0"/>
</linearGradient>
<linearGradient id="paint11_linear_202_3266" x1="961.934" y1="744.476" x2="961.934" y2="1108.21" gradientUnits="userSpaceOnUse">
<stop stop-color="#333333"/>
<stop offset="1" stop-color="#333333" stop-opacity="0"/>
</linearGradient>
<linearGradient id="paint12_linear_202_3266" x1="961.934" y1="710.305" x2="961.934" y2="1095.9" gradientUnits="userSpaceOnUse">
<stop stop-color="#333333"/>
<stop offset="1" stop-color="#333333" stop-opacity="0"/>
</linearGradient>
<linearGradient id="paint13_linear_202_3266" x1="961.947" y1="676.448" x2="961.947" y2="1082.39" gradientUnits="userSpaceOnUse">
<stop stop-color="#333333"/>
<stop offset="1" stop-color="#333333" stop-opacity="0"/>
</linearGradient>
<linearGradient id="paint14_linear_202_3266" x1="961.934" y1="652.805" x2="961.934" y2="1056.97" gradientUnits="userSpaceOnUse">
<stop stop-color="#333333"/>
<stop offset="1" stop-color="#333333" stop-opacity="0"/>
</linearGradient>
<linearGradient id="paint15_linear_202_3266" x1="961.947" y1="636.878" x2="961.947" y2="1023.95" gradientUnits="userSpaceOnUse">
<stop stop-color="#333333"/>
<stop offset="1" stop-color="#333333" stop-opacity="0"/>
</linearGradient>
<linearGradient id="paint16_linear_202_3266" x1="961.947" y1="621.076" x2="961.947" y2="994.563" gradientUnits="userSpaceOnUse">
<stop stop-color="#333333"/>
<stop offset="1" stop-color="#333333" stop-opacity="0"/>
</linearGradient>
<linearGradient id="paint17_linear_202_3266" x1="961.922" y1="602.647" x2="961.922" y2="968.718" gradientUnits="userSpaceOnUse">
<stop stop-color="#333333"/>
<stop offset="1" stop-color="#333333" stop-opacity="0"/>
</linearGradient>
<linearGradient id="paint18_linear_202_3266" x1="961.934" y1="584.525" x2="961.934" y2="946.442" gradientUnits="userSpaceOnUse">
<stop stop-color="#333333"/>
<stop offset="1" stop-color="#333333" stop-opacity="0"/>
</linearGradient>
<linearGradient id="paint19_linear_202_3266" x1="961.947" y1="564.068" x2="961.947" y2="926.652" gradientUnits="userSpaceOnUse">
<stop stop-color="#333333"/>
<stop offset="1" stop-color="#333333" stop-opacity="0"/>
</linearGradient>
<linearGradient id="paint20_linear_202_3266" x1="961.947" y1="543.196" x2="961.947" y2="910.626" gradientUnits="userSpaceOnUse">
<stop stop-color="#333333"/>
<stop offset="1" stop-color="#333333" stop-opacity="0"/>
</linearGradient>
<linearGradient id="paint21_linear_202_3266" x1="961.947" y1="520.938" x2="961.947" y2="896.007" gradientUnits="userSpaceOnUse">
<stop stop-color="#333333"/>
<stop offset="1" stop-color="#333333" stop-opacity="0"/>
</linearGradient>
<linearGradient id="paint22_linear_202_3266" x1="961.947" y1="495.793" x2="961.947" y2="881.063" gradientUnits="userSpaceOnUse">
<stop stop-color="#333333"/>
<stop offset="1" stop-color="#333333" stop-opacity="0"/>
</linearGradient>
<linearGradient id="paint23_linear_202_3266" x1="961.934" y1="468.894" x2="961.934" y2="863.386" gradientUnits="userSpaceOnUse">
<stop stop-color="#333333"/>
<stop offset="1" stop-color="#333333" stop-opacity="0"/>
</linearGradient>
<linearGradient id="paint24_linear_202_3266" x1="961.947" y1="443.284" x2="961.947" y2="839.644" gradientUnits="userSpaceOnUse">
<stop stop-color="#333333"/>
<stop offset="1" stop-color="#333333" stop-opacity="0"/>
</linearGradient>
<linearGradient id="paint25_linear_202_3266" x1="961.922" y1="417.77" x2="961.922" y2="808.705" gradientUnits="userSpaceOnUse">
<stop stop-color="#333333"/>
<stop offset="1" stop-color="#333333" stop-opacity="0"/>
</linearGradient>
<linearGradient id="paint26_linear_202_3266" x1="961.934" y1="385.456" x2="961.934" y2="767.516" gradientUnits="userSpaceOnUse">
<stop stop-color="#333333"/>
<stop offset="1" stop-color="#333333" stop-opacity="0"/>
</linearGradient>
<linearGradient id="paint27_linear_202_3266" x1="961.934" y1="348.891" x2="961.934" y2="712.749" gradientUnits="userSpaceOnUse">
<stop stop-color="#333333"/>
<stop offset="1" stop-color="#333333" stop-opacity="0"/>
</linearGradient>
<linearGradient id="paint28_linear_202_3266" x1="961.934" y1="331.996" x2="961.934" y2="685.703" gradientUnits="userSpaceOnUse">
<stop stop-color="#333333"/>
<stop offset="1" stop-color="#333333" stop-opacity="0"/>
</linearGradient>
<linearGradient id="paint29_linear_202_3266" x1="961.922" y1="319.492" x2="961.922" y2="656.225" gradientUnits="userSpaceOnUse">
<stop stop-color="#333333"/>
<stop offset="1" stop-color="#333333" stop-opacity="0"/>
</linearGradient>
<linearGradient id="paint30_linear_202_3266" x1="961.934" y1="310.468" x2="961.934" y2="626.291" gradientUnits="userSpaceOnUse">
<stop stop-color="#333333"/>
<stop offset="1" stop-color="#333333" stop-opacity="0"/>
</linearGradient>
<linearGradient id="paint31_linear_202_3266" x1="961.922" y1="303.696" x2="961.922" y2="604.522" gradientUnits="userSpaceOnUse">
<stop stop-color="#333333"/>
<stop offset="1" stop-color="#333333" stop-opacity="0"/>
</linearGradient>
<linearGradient id="paint32_linear_202_3266" x1="961.947" y1="304.221" x2="961.947" y2="586.632" gradientUnits="userSpaceOnUse">
<stop stop-color="#333333"/>
<stop offset="1" stop-color="#333333" stop-opacity="0"/>
</linearGradient>
<linearGradient id="paint33_linear_202_3266" x1="961.934" y1="298.015" x2="961.934" y2="572.085" gradientUnits="userSpaceOnUse">
<stop stop-color="#333333"/>
<stop offset="1" stop-color="#333333" stop-opacity="0"/>
</linearGradient>
<linearGradient id="paint34_linear_202_3266" x1="961.934" y1="290.109" x2="961.934" y2="566.873" gradientUnits="userSpaceOnUse">
<stop stop-color="#333333"/>
<stop offset="1" stop-color="#333333" stop-opacity="0"/>
</linearGradient>
<linearGradient id="paint35_linear_202_3266" x1="961.922" y1="279.28" x2="961.922" y2="558.088" gradientUnits="userSpaceOnUse">
<stop stop-color="#333333"/>
<stop offset="1" stop-color="#333333" stop-opacity="0"/>
</linearGradient>
<linearGradient id="paint36_linear_202_3266" x1="961.934" y1="264.507" x2="961.934" y2="549.394" gradientUnits="userSpaceOnUse">
<stop stop-color="#333333"/>
<stop offset="1" stop-color="#333333" stop-opacity="0"/>
</linearGradient>
<linearGradient id="paint37_linear_202_3266" x1="961.96" y1="230.752" x2="961.96" y2="540.338" gradientUnits="userSpaceOnUse">
<stop stop-color="#333333"/>
<stop offset="1" stop-color="#333333" stop-opacity="0"/>
</linearGradient>
<linearGradient id="paint38_linear_202_3266" x1="961.934" y1="192.17" x2="961.934" y2="529.744" gradientUnits="userSpaceOnUse">
<stop stop-color="#333333"/>
<stop offset="1" stop-color="#333333" stop-opacity="0"/>
</linearGradient>
<linearGradient id="paint39_linear_202_3266" x1="961.934" y1="154.294" x2="961.934" y2="517.295" gradientUnits="userSpaceOnUse">
<stop stop-color="#333333"/>
<stop offset="1" stop-color="#333333" stop-opacity="0"/>
</linearGradient>
<linearGradient id="paint40_linear_202_3266" x1="961.922" y1="118.254" x2="961.922" y2="500.815" gradientUnits="userSpaceOnUse">
<stop stop-color="#333333"/>
<stop offset="1" stop-color="#333333" stop-opacity="0"/>
</linearGradient>
<linearGradient id="paint41_linear_202_3266" x1="961.922" y1="84.6006" x2="961.922" y2="473.484" gradientUnits="userSpaceOnUse">
<stop stop-color="#333333"/>
<stop offset="1" stop-color="#333333" stop-opacity="0"/>
</linearGradient>
<linearGradient id="paint42_linear_202_3266" x1="961.934" y1="67.415" x2="961.934" y2="436.975" gradientUnits="userSpaceOnUse">
<stop stop-color="#333333"/>
<stop offset="1" stop-color="#333333" stop-opacity="0"/>
</linearGradient>
<linearGradient id="paint43_linear_202_3266" x1="961.934" y1="53.1221" x2="961.934" y2="399.624" gradientUnits="userSpaceOnUse">
<stop stop-color="#333333"/>
<stop offset="1" stop-color="#333333" stop-opacity="0"/>
</linearGradient>
<linearGradient id="paint44_linear_202_3266" x1="961.934" y1="39.7686" x2="961.934" y2="362.119" gradientUnits="userSpaceOnUse">
<stop stop-color="#333333"/>
<stop offset="1" stop-color="#333333" stop-opacity="0"/>
</linearGradient>
<linearGradient id="paint45_linear_202_3266" x1="961.947" y1="29.1152" x2="961.947" y2="324.513" gradientUnits="userSpaceOnUse">
<stop stop-color="#333333"/>
<stop offset="1" stop-color="#333333" stop-opacity="0"/>
</linearGradient>
<linearGradient id="paint46_linear_202_3266" x1="961.922" y1="20.2734" x2="961.922" y2="285.972" gradientUnits="userSpaceOnUse">
<stop stop-color="#333333"/>
<stop offset="1" stop-color="#333333" stop-opacity="0"/>
</linearGradient>
<linearGradient id="paint47_linear_202_3266" x1="961.947" y1="14.2764" x2="961.947" y2="247.652" gradientUnits="userSpaceOnUse">
<stop stop-color="#333333"/>
<stop offset="1" stop-color="#333333" stop-opacity="0"/>
</linearGradient>
<linearGradient id="paint48_linear_202_3266" x1="961.934" y1="9.27148" x2="961.934" y2="209.812" gradientUnits="userSpaceOnUse">
<stop stop-color="#333333"/>
<stop offset="1" stop-color="#333333" stop-opacity="0"/>
</linearGradient>
<linearGradient id="paint49_linear_202_3266" x1="961.934" y1="6.05566" x2="961.934" y2="167.94" gradientUnits="userSpaceOnUse">
<stop stop-color="#333333"/>
<stop offset="1" stop-color="#333333" stop-opacity="0"/>
</linearGradient>
<linearGradient id="paint50_linear_202_3266" x1="961.934" y1="3.97559" x2="961.934" y2="132.142" gradientUnits="userSpaceOnUse">
<stop stop-color="#333333"/>
<stop offset="1" stop-color="#333333" stop-opacity="0"/>
</linearGradient>
<linearGradient id="paint51_linear_202_3266" x1="961.934" y1="2.87793" x2="961.934" y2="97.4862" gradientUnits="userSpaceOnUse">
<stop stop-color="#333333"/>
<stop offset="1" stop-color="#333333" stop-opacity="0"/>
</linearGradient>
<linearGradient id="paint52_linear_202_3266" x1="961.934" y1="2.03711" x2="961.934" y2="64.0501" gradientUnits="userSpaceOnUse">
<stop stop-color="#333333"/>
<stop offset="1" stop-color="#333333" stop-opacity="0"/>
</linearGradient>
<linearGradient id="paint53_linear_202_3266" x1="961.934" y1="1.56543" x2="961.934" y2="31.6225" gradientUnits="userSpaceOnUse">
<stop stop-color="#333333"/>
<stop offset="1" stop-color="#333333" stop-opacity="0"/>
</linearGradient>
<linearGradient id="paint54_linear_202_3266" x1="961.934" y1="1.29492" x2="961.934" y2="3.43688" gradientUnits="userSpaceOnUse">
<stop stop-color="#333333"/>
<stop offset="1" stop-color="#333333" stop-opacity="0"/>
</linearGradient>
<clipPath id="clip0_202_3266">
<rect width="1924" height="1286" fill="white" transform="translate(-0.00146484)"/>
</clipPath>
</defs>
</svg>
