<svg width="2406" height="1608" viewBox="0 0 2406 1608" fill="none" xmlns="http://www.w3.org/2000/svg">
<path d="M1.05762 1606.36C802.235 1602.97 1603.6 1601.46 2404.78 1606.36" stroke="url(#paint0_linear_202_4302)" stroke-miterlimit="10"/>
<path d="M1.05762 1574.39C233.001 1558.87 468.502 1553.58 700.766 1565.83C795.633 1570.83 890.756 1573.3 985.655 1568.04C1089.14 1562.3 1187.66 1539.4 1289.77 1525.42C1471.37 1500.53 1655.49 1559 1836.32 1568.74C2026.79 1579.04 2213.83 1552.29 2404.78 1576.67" stroke="url(#paint1_linear_202_4302)" stroke-miterlimit="10"/>
<path d="M1.05762 1538.66C241.975 1512.01 491.674 1507.14 733.168 1531.06C829.99 1540.65 927.613 1545.72 1024.6 1535.55C1139.04 1523.59 1238.37 1479.52 1348.49 1452.62C1532.42 1407.68 1714.02 1516.79 1894.58 1534.53C1973.84 1542.32 2052.3 1525.29 2131.37 1520.19C2224.86 1514.13 2314.05 1523.78 2404.78 1546.97" stroke="url(#paint2_linear_202_4302)" stroke-miterlimit="10"/>
<path d="M1.05762 1499.92C249.378 1463.91 504.686 1468.33 753.199 1501.72C850.983 1514.83 948.83 1522.05 1046.84 1506.85C1097.83 1498.93 1147.57 1485.62 1196.22 1468.46C1262.37 1445.14 1323.36 1402.3 1388.97 1380.87C1573.09 1320.74 1747.83 1474.17 1922.43 1501.59C2002.56 1514.16 2075.66 1488.09 2154.6 1479.07C2242.51 1469.04 2322.57 1486.23 2404.81 1517.3" stroke="url(#paint3_linear_202_4302)" stroke-miterlimit="10"/>
<path d="M1.05762 1458.74C244.154 1416.12 492.507 1429.46 734.738 1472.6C839.861 1491.33 945.144 1503.67 1050.91 1482.19C1185.2 1454.89 1284.23 1374.11 1407.17 1322.47C1606.55 1238.74 1765.33 1441.87 1951.31 1472.76C2024.74 1484.94 2085.28 1453.84 2155.56 1440.27C2245.78 1422.86 2323.73 1448.48 2404.78 1487.64" stroke="url(#paint4_linear_202_4302)" stroke-miterlimit="10"/>
<path d="M1.05762 1415.8C244.347 1365.83 482.988 1395.4 722.688 1449.51C828.131 1473.3 933.863 1486.32 1040.24 1459.99C1095.46 1446.33 1147.63 1424.04 1198.02 1397.87C1273.43 1358.71 1340.16 1293.29 1415.83 1258.3C1619.21 1164.24 1764.33 1401.43 1945.25 1440.81C2027.59 1458.74 2082.36 1419.36 2158.29 1400.02C2248.54 1377.06 2327.22 1414.1 2404.78 1457.94" stroke="url(#paint5_linear_202_4302)" stroke-miterlimit="10"/>
<path d="M1.05762 1371.77C239.539 1315.1 458.278 1362.4 689.356 1425.36C796.658 1454.57 903.896 1472.24 1013.15 1441.94C1070.97 1425.9 1124.78 1399.48 1176.45 1369.36C1257.4 1322.18 1327.24 1246.98 1408.74 1204.2C1622.8 1091.85 1749.75 1367.31 1934.74 1411.18C2021.69 1431.8 2072.62 1384.53 2150.05 1360.12C2243.76 1330.59 2327.06 1379.66 2404.75 1428.24" stroke="url(#paint6_linear_202_4302)" stroke-miterlimit="10"/>
<path d="M1.05762 1327.25C228.802 1264.46 422.222 1326.48 638.045 1397.49C745.09 1432.7 851.848 1459.06 963.413 1430.2C1133.15 1386.29 1243.78 1252.69 1386.44 1162.66C1618.09 1016.52 1721.32 1341.97 1923.43 1383.41C2010.92 1401.37 2060.41 1345.53 2137.74 1318.56C2235.69 1284.4 2326.1 1345.92 2404.78 1398.48" stroke="url(#paint7_linear_202_4302)" stroke-miterlimit="10"/>
<path d="M1.05762 1282.96C222.04 1211.54 391.711 1291.81 594.649 1371.38C704.227 1414.32 815.055 1449.15 931.812 1413.65C1104.91 1361.02 1217.73 1217.67 1360.83 1117.96C1604.12 948.463 1683.99 1310.64 1892.95 1353.23C1981.89 1371.35 2036.79 1309.39 2112.94 1279.15C2220.5 1236.43 2319.24 1309.13 2404.78 1368.88" stroke="url(#paint8_linear_202_4302)" stroke-miterlimit="10"/>
<path d="M1.05762 1239.47C100.059 1201.73 196.689 1193.04 299.087 1223.5C393.634 1251.63 474.816 1308.43 564.042 1348.61C669.421 1396.08 777.685 1437.7 893 1399.89C1076.16 1339.82 1186.41 1176.71 1335.89 1068.5C1577.93 893.269 1648.35 1266.8 1847.05 1317.18C1947.66 1342.68 2005.96 1268.75 2091.5 1234.95C2207.1 1189.25 2315.11 1274.56 2404.78 1339.18" stroke="url(#paint9_linear_202_4302)" stroke-miterlimit="10"/>
<path d="M1.05762 1197.49C90.1557 1157.12 178.933 1144.54 273.031 1176.1C365.719 1207.18 441.003 1272.6 526.384 1317.89C625.705 1370.58 727.912 1423.46 842.201 1389.73C1033.83 1333.22 1154.11 1150.03 1302.82 1031.49C1556.4 829.351 1598.48 1235.85 1806.22 1282.64C1912.82 1306.66 1979.19 1220.94 2070.73 1187.52C2193.86 1142.59 2311.97 1240.76 2404.75 1309.45" stroke="url(#paint10_linear_202_4302)" stroke-miterlimit="10"/>
<path d="M1.05762 1157.63C206.977 1046.99 330.656 1177.87 498.372 1283.64C593.624 1343.7 696.183 1413.2 812.908 1374.52C1001.94 1311.89 1126.29 1123.57 1269.58 998.334C1362.08 917.515 1450.63 898.754 1529.86 1001C1598.57 1089.64 1642.71 1217.31 1764.97 1243C1871.44 1265.36 1946.63 1177.61 2037.97 1141.85C2172.39 1089.19 2305.46 1204.32 2404.78 1279.79" stroke="url(#paint11_linear_202_4302)" stroke-miterlimit="10"/>
<path d="M1.05762 1120.55C200.503 995.126 324.791 1125.37 482.091 1243.58C565.997 1306.63 660.992 1393.96 774.352 1364.36C843.355 1346.33 904.538 1295.12 957.227 1249.9C1058.5 1163.02 1142.57 1060.52 1238.72 968.731C1330.89 880.729 1421.75 846.092 1500.79 962.189C1559.7 1048.72 1604.89 1182.39 1723.31 1201.28C1835.9 1219.24 1918.3 1122.58 2017.05 1089.16C2159.47 1040.92 2303.06 1170.55 2404.78 1250.02" stroke="url(#paint12_linear_202_4302)" stroke-miterlimit="10"/>
<path d="M1.05762 1086.95C78.8101 1030.98 164.607 995.864 259.346 1029.96C343.701 1060.33 409.274 1130.88 474.111 1189.67C547.184 1255.93 639.487 1373.56 751.661 1350.44C814.798 1337.42 870.341 1289.06 917.518 1247.88C1021.65 1156.96 1112.92 1051.64 1206.54 950.324C1294.17 855.458 1391.28 787.211 1473 919.247C1528.03 1008.12 1570.75 1148.68 1695.56 1153.62C1806.32 1158.01 1889.55 1069.5 1989.39 1036.85C2142.52 986.788 2297.86 1133.93 2404.81 1220.36" stroke="url(#paint13_linear_202_4302)" stroke-miterlimit="10"/>
<path d="M1.05762 1056.09C80.8613 993.875 169.767 952.568 270.563 988.423C355.623 1018.67 426.068 1087.62 488.95 1149.61C554.331 1214.11 642.083 1340.79 749.129 1319.17C809.03 1307.08 861.719 1258.62 905.884 1219.3C1006.87 1129.34 1097.06 1026.78 1188.31 927.264C1271.86 836.151 1369.99 753.088 1452.88 884.514C1507.1 970.496 1548.29 1107.73 1670.75 1109.43C1780.55 1110.93 1872.12 1031.17 1974.64 1003.85C2134.22 961.292 2290.17 1100.8 2404.78 1189.92" stroke="url(#paint14_linear_202_4302)" stroke-miterlimit="10"/>
<path d="M1.05762 1021.71C89.098 952.408 183.036 915.142 290.658 963.248C379.66 1003.05 457.605 1078.35 526.48 1145.03C588.272 1204.87 664.838 1305.86 762.269 1274.4C821.721 1255.19 873.417 1203.88 917.774 1162.63C1006.68 1079.99 1089.3 990.476 1173.18 902.794C1253.11 819.186 1350.09 737.854 1436.02 854.432C1497.14 937.367 1536.04 1070.01 1658.06 1076.07C1766.74 1081.46 1871.83 1009.72 1976.6 990.476C2135.05 961.356 2282.42 1070.65 2404.81 1154.87" stroke="url(#paint15_linear_202_4302)" stroke-miterlimit="10"/>
<path d="M1.05762 983.517C95.7323 911.23 192.202 879.447 302.805 936.533C387.544 980.246 465.746 1050.64 535.454 1114.88C600.418 1174.76 680.19 1277.93 778.358 1232.26C829.605 1208.43 871.783 1163.05 912.037 1124.66C996.712 1043.84 1076.8 958.149 1159.49 875.342C1245.03 789.681 1341.95 723.262 1430.7 837.146C1491.78 915.559 1535.79 1039 1651.62 1044.13C1758.18 1048.88 1864.04 997.789 1968.04 980.791C2128.58 954.557 2271.1 1036.47 2404.81 1115.39" stroke="url(#paint16_linear_202_4302)" stroke-miterlimit="10"/>
<path d="M1.05762 942.21C110.251 863.38 214.412 845.548 330.688 918.894C414.242 971.587 491.481 1042.98 566.253 1107.34C628.686 1161.09 698.907 1245.47 786.274 1196.6C833.067 1170.43 872.007 1123.76 909.281 1086.02C988.636 1005.61 1065.91 923.256 1147.57 845.164C1232.18 764.249 1329.04 705.848 1419.09 808.09C1486.33 884.418 1532.9 1006.16 1648.44 1017.19C1750.26 1026.91 1861.22 987.077 1961.37 971.555C2121.43 946.764 2262.26 1003.37 2404.75 1072.48" stroke="url(#paint17_linear_202_4302)" stroke-miterlimit="10"/>
<path d="M1.05762 898.56C119.353 818.928 228.129 810.397 346.681 893.717C436.132 956.576 516.512 1036.02 601.572 1104.9C660.063 1152.24 724.771 1217.15 797.876 1162.76C846.207 1126.81 885.66 1072.64 925.786 1028.51C993.636 953.946 1063.18 880.376 1137.83 812.578C1229.3 729.482 1328.49 690.228 1420.6 790.385C1488.03 863.699 1539.7 978.128 1650.49 990.539C1755.36 1002.28 1868.75 974.728 1972.62 960.457C2125.37 939.482 2261.33 973.638 2404.78 1026.78" stroke="url(#paint18_linear_202_4302)" stroke-miterlimit="10"/>
<path d="M1.05762 853.245C135.923 768.866 250.564 777.846 374.372 876.753C468.31 951.799 548.37 1039.13 646.281 1109.94C713.457 1158.5 761.885 1185.92 823.196 1118.25C927.389 1003.24 1011.78 872.167 1133.85 773.004C1223.46 700.235 1322.05 673.103 1411.34 757.802C1486.78 829.352 1537.55 939.195 1646.45 964.98C1746.99 988.744 1873.17 965.3 1974.26 951.51C2123.45 931.145 2258.09 943.107 2404.81 979.283" stroke="url(#paint19_linear_202_4302)" stroke-miterlimit="10"/>
<path d="M1.05762 807.03C152.076 718.867 275.05 747.506 402.383 860.363C493.597 941.214 569.458 1034.83 672.979 1101.25C748.968 1150.03 788.967 1158.65 840.951 1080.98C923.319 957.923 1006.23 832.141 1126.23 741.38C1223.24 667.97 1321.54 651.486 1416.34 736.121C1495.28 806.613 1551.46 920.015 1663.09 944.966C1762.09 967.095 1877.63 956.576 1977.43 942.978C2122.33 923.222 2258.44 914.306 2404.81 930.63" stroke="url(#paint20_linear_202_4302)" stroke-miterlimit="10"/>
<path d="M1.05762 760.656C165.665 669.735 294.44 714.538 424.914 838.941C517.249 926.975 593.367 1034.51 707.048 1096.92C791.434 1143.26 821.048 1119.18 861.303 1039.74C925.338 913.409 1006.33 785.735 1124.94 703.441C1225.35 633.751 1326.92 631.603 1421.24 711.683C1503.51 781.566 1563.45 892.018 1673.67 922.998C1910.06 989.449 2167.33 890.126 2404.81 881.883" stroke="url(#paint21_linear_202_4302)" stroke-miterlimit="10"/>
<path d="M1.05762 714.826C82.9445 671.178 159.928 645.265 251.558 677.047C327.355 703.345 389.435 758.539 445.042 814.759C536.768 907.572 615.193 1032.46 737.399 1087.62C829.061 1128.99 850.758 1073.25 881.686 995.478C932.1 868.606 1008.22 738.623 1127.15 664.347C1386.37 502.421 1479.93 830.057 1686.16 901.094C1927.02 984.061 2169.28 879.382 2404.81 833.745" stroke="url(#paint22_linear_202_4302)" stroke-miterlimit="10"/>
<path d="M1.05762 670.281C86.47 625.061 165.184 599.853 258.48 634.201C336.746 663 400.012 721.85 456.708 781.47C545.87 875.213 638.077 1037.49 771.083 1074.82C864.187 1100.96 878.866 1013.79 902.454 943.62C943.734 820.789 1014.88 685.354 1133.92 620.378C1381.02 485.488 1505.47 788.782 1692.03 874.508C1936.79 986.98 2173.8 871.653 2404.78 787.05" stroke="url(#paint23_linear_202_4302)" stroke-miterlimit="10"/>
<path d="M1.05762 627.787C87.3033 580.835 164.992 555.339 259.923 588.596C338.637 616.177 402.96 677.721 458.919 737.693C549.716 835.028 647.051 1019.92 788.229 1047.5C884.186 1066.26 897.647 970.335 918.607 898.304C954.599 774.735 1019.4 637.953 1143.79 580.482C1391.24 466.15 1524.7 757.321 1707.22 851.481C1802.25 900.485 1925.29 925.597 2031.15 908.535C2165.34 886.919 2288.06 807.351 2404.81 742.793" stroke="url(#paint24_linear_202_4302)" stroke-miterlimit="10"/>
<path d="M1.05762 588.019C92.9119 534.878 181.689 504.25 283.383 550.176C359.693 584.652 420.235 648.024 474.944 709.536C556.927 801.707 660.255 995.896 798.165 1010.46C901.973 1021.42 915.082 907.99 937.324 831.405C971.714 713.032 1033.63 586.127 1158.27 540.458C1403.87 450.436 1545.88 720.376 1723.09 825.857C1812.63 879.159 1929.68 915.655 2034.42 902.602C2174.73 885.092 2296.17 783.491 2404.75 701.55" stroke="url(#paint25_linear_202_4302)" stroke-miterlimit="10"/>
<path d="M1.05762 551.746C87.784 496.456 173.164 457.971 275.627 499.374C357.738 532.567 423.12 603.027 479.527 668.869C560.164 762.996 661.569 956.255 804.831 959.655C906.973 962.06 925.883 846.99 949.984 770.148C987.258 651.422 1046.2 536.256 1176.93 502.677C1427.27 438.343 1566.27 685.161 1745.39 803.566C1833.08 861.55 1950.03 909.368 2056.85 893.942C2196.56 873.737 2308.79 757.544 2404.78 664.347" stroke="url(#paint26_linear_202_4302)" stroke-miterlimit="10"/>
<path d="M1.05762 519.709C80.669 461.949 163.357 413.554 264.602 447.485C343.508 473.911 405.653 538.63 458.759 600.014C545.742 700.524 633.237 879.319 782.973 890.736C896.814 899.395 926.395 788.687 959.15 701.101C1003.83 581.605 1066.1 480.422 1202.92 461.917C1445.47 429.108 1585.24 637.793 1753.76 769.156C1838.24 834.997 1952.63 898.048 2063.16 887.272C2209.79 872.969 2317.7 736.54 2404.78 631.957" stroke="url(#paint27_linear_202_4302)" stroke-miterlimit="10"/>
<path d="M1.05762 494.435C80.2844 439.113 161.979 393.572 261.205 425.9C338.476 451.075 399.98 512.94 452.445 572.464C536.96 668.291 626.411 852.25 771.852 857.285C884.314 861.165 922.806 761.489 963.124 673.872C1014.82 561.592 1084.78 458.805 1217.47 440.877C1451.53 409.255 1597.74 604.214 1763.85 728.905C1845.36 790.064 1960.32 852.282 2064.99 850.229C2211.33 847.343 2319.72 708.059 2404.78 606.395" stroke="url(#paint28_linear_202_4302)" stroke-miterlimit="10"/>
<path d="M1.05762 477.151C79.0344 423.753 159.543 379.463 256.814 408.904C331.97 431.642 392.576 489.562 444.208 546.263C527.377 637.633 616.443 819.667 757.173 820.533C867.52 821.207 914.505 733.333 962.676 647.735C1021.52 543.185 1098.76 442.867 1226.73 425.292C1452.33 394.344 1604.73 569.194 1770.94 685.579C1851.64 742.088 1965.35 805.139 2065.22 814.055C2210.82 827.044 2320.97 686.381 2404.75 588.372" stroke="url(#paint29_linear_202_4302)" stroke-miterlimit="10"/>
<path d="M1.05762 466.438C75.8615 415.285 155.825 371.059 249.25 394.791C328.894 414.996 392.16 475.257 446.388 533.594C528.819 622.27 611.475 786.986 749.193 780.86C853.386 776.242 906.493 697.091 960.913 619.191C1027.74 523.492 1108.41 433.758 1230.77 416.375C1452.97 384.785 1608.64 535.935 1781.51 643.757C1861.38 693.596 1962.72 752.702 2054.74 776.531C2203.89 815.144 2317.48 675.283 2404.78 576.505" stroke="url(#paint30_linear_202_4302)" stroke-miterlimit="10"/>
<path d="M1.05762 460.922C73.8103 410.538 152.076 365.351 243.962 384.048C320.464 399.634 382.641 453.257 435.939 507.104C519.525 591.514 597.341 743.113 730.764 737.18C831.977 732.69 892.839 666.047 954.759 594.24C1028.95 508.226 1114.59 426.51 1232.25 409.384C1445.05 378.403 1608.12 499.246 1783.02 595.395C1869.81 643.116 1961.09 701.453 2052.2 740.066C2198.89 802.252 2314.21 667.682 2404.75 569.513" stroke="url(#paint31_linear_202_4302)" stroke-miterlimit="10"/>
<path d="M1.05762 459.223C154.127 350.631 286.524 351.176 425.523 479.941C510.872 558.995 583.4 694.687 712.143 690.069C810.055 686.541 878.129 632.534 947.132 569.13C1028.44 494.437 1118.02 422.181 1231 405.376C1433.77 375.197 1605.46 462.59 1781.93 545.494C1879.07 591.13 1957.66 648.377 2048.13 703.892C2191.01 791.541 2307.64 666.401 2404.81 566.179" stroke="url(#paint32_linear_202_4302)" stroke-miterlimit="10"/>
<path d="M1.05762 459.96C143.518 355.537 274.634 335.269 415.716 451.493C503.308 523.653 570.772 641.866 694.292 639.428C899.954 635.387 1026.61 433.822 1227.63 403.419C1420.18 374.299 1601.07 425.933 1778.18 494.34C1886.44 536.16 1954.61 595.395 2042.43 667.651C2180.18 780.989 2297.26 670.12 2404.78 565.024" stroke="url(#paint33_linear_202_4302)" stroke-miterlimit="10"/>
<path d="M1.05762 461.756C131.339 362.4 261.429 320.323 403.73 418.749C491.706 479.587 556.222 581.252 669.902 585.164C874.315 592.252 1026.42 432.026 1222.6 401.398C1401.6 373.465 1592.9 388.955 1765.58 440.781C1888.53 477.695 1951.31 544.819 2037.97 634.425C2070.34 667.907 2106.75 702.768 2155.37 708.028C2252.1 718.451 2342.57 622.527 2404.78 564.928" stroke="url(#paint34_linear_202_4302)" stroke-miterlimit="10"/>
<path d="M1.05762 463.231C122.269 367.082 251.75 305.987 397.223 386.485C487.219 436.291 549.812 520.83 657.146 527.084C856.848 538.725 1025.08 431.641 1217.18 401.783C1389.51 375.004 1584.79 352.682 1756.9 389.628C1889.3 418.043 1948.84 497.29 2029.1 598.569C2059.83 637.375 2094.64 682.018 2145.44 694.205C2243.57 717.745 2340.39 620.987 2404.75 564.574" stroke="url(#paint35_linear_202_4302)" stroke-miterlimit="10"/>
<path d="M1.05762 462.974C119.353 365.479 250.821 290.016 403.121 355.056C486.161 390.526 547.953 455.534 640.352 464.578C838.932 484.045 1019.5 431.224 1213.4 402.745C1315.57 387.736 1416.24 372.855 1517.55 352.426C1596.3 336.551 1672.83 328.309 1752.89 339.79C1891.22 359.61 1949.64 458.516 2021.37 566.274C2050.09 609.409 2084.61 662.968 2136.78 680.126C2236.78 713.03 2336.52 619.383 2404.78 562.522" stroke="url(#paint36_linear_202_4302)" stroke-miterlimit="10"/>
<path d="M1.05762 459.638C114.994 362.72 246.526 272.922 402.255 314.453C484.815 336.486 551.446 387.735 637.243 398.575C832.971 423.27 1014.31 428.882 1209.87 401.622C1313.43 387.19 1410.51 365.927 1509.28 331.675C1585.34 305.313 1658.31 283.698 1739.85 289.47C1885.03 299.733 1944 416.567 2009.55 530.034C2037.46 578.364 2071.18 640.55 2125.28 664.058C2227.19 708.347 2332.22 615.278 2404.85 557.647" stroke="url(#paint37_linear_202_4302)" stroke-miterlimit="10"/>
<path d="M1.05762 451.846C113.392 354.03 244.411 254.13 401.999 269.267C486.61 277.381 564.042 317.405 648.044 329.785C840.054 358.103 1008.96 422.726 1206.19 398.641C1310.54 385.877 1404.32 358.616 1498.35 311.985C1569.18 276.868 1636.68 241.333 1717.83 240.307C1875.58 238.383 1935.16 376.255 1998.68 497.868C2026.12 550.4 2059.09 618.743 2114.99 646.901C2218.7 699.177 2328.06 607.101 2404.78 548.508" stroke="url(#paint38_linear_202_4302)" stroke-miterlimit="10"/>
<path d="M1.05762 438.216C115.699 337.225 247.071 230.814 406.197 220.295C491.994 214.618 582.31 240.146 665.8 257.465C853.579 296.399 1009.92 414.836 1209.33 393.285C1311.86 382.22 1402.4 348.834 1488.35 292.518C1557.71 247.074 1621.26 198.358 1707.38 193.323C1868.56 183.926 1927.59 344.056 1986.41 465.572C2014.35 523.268 2046.43 593.054 2104.06 627.209C2207.55 688.529 2326.87 591.643 2404.78 533.915" stroke="url(#paint39_linear_202_4302)" stroke-miterlimit="10"/>
<path d="M1.05762 417.305C197.234 244.893 403.986 111.959 671.056 176.55C861.174 222.539 1007.61 401.398 1213.88 384.529C1318.39 375.966 1406.44 333.985 1485.95 267.502C1548.22 215.452 1603.7 158.365 1688.66 149.161C1850.71 131.618 1910.1 295.629 1965.64 416.985C1995.96 483.211 2028.78 566.05 2094.57 605.497C2200.66 669.094 2323.86 571.374 2404.75 512.492" stroke="url(#paint40_linear_202_4302)" stroke-miterlimit="10"/>
<path d="M1.05762 388.89C189.83 227.51 432.67 49.0036 696.759 123.023C882.135 174.978 1022.19 372.823 1225.93 362.368C1327.82 357.14 1414.38 308.296 1486.3 239.088C1543.35 184.214 1594.34 122.318 1678.25 113.017C1833.69 95.7308 1896.95 257.624 1951.73 372.727C1984.51 441.583 2018.87 525.865 2086.3 568.231C2194.28 636.06 2318.98 543.44 2404.75 483.66" stroke="url(#paint41_linear_202_4302)" stroke-miterlimit="10"/>
<path d="M1.05762 359.193C190.503 204.676 439.209 34.0586 699.131 98.1362C890.179 145.216 1041.52 341.554 1248.37 328.116C1342.11 322.023 1420.67 276.45 1486.5 212.18C1539.02 160.899 1585.08 102.466 1661.77 89.926C1814.75 64.9108 1890.32 230.877 1949.68 340.945C1983.78 404.124 2020.76 477.342 2082.65 518.104C2190.88 589.397 2312.67 510.471 2404.78 451.14" stroke="url(#paint42_linear_202_4302)" stroke-miterlimit="10"/>
<path d="M1.05762 329.496C194.093 180.431 454.913 15.5866 712.913 81.2677C900.499 129.021 1061.07 308.233 1263.49 297.233C1349.8 292.55 1425.38 246.529 1485.73 187.967C1534.09 141.048 1577.13 85.1483 1646.62 70.4278C1797.18 38.5493 1883.78 205.799 1949.36 310.221C1988.78 372.984 2029.99 442.065 2097.68 477.567C2204.79 533.723 2311.33 471.73 2404.78 416.216" stroke="url(#paint43_linear_202_4302)" stroke-miterlimit="10"/>
<path d="M1.05762 299.799C200.278 155.384 467.444 3.72061 725.188 67.6057C910.98 113.659 1078.37 279.594 1277.69 265.964C1357.98 260.48 1426.59 220.103 1483.96 166.127C1532.2 120.747 1575.53 65.4249 1644.44 52.6928C1787.6 26.2023 1880.87 183.253 1950.73 280.556C1990.83 336.391 2033.33 393.349 2094.45 427.184C2200.79 486.002 2307.96 432.155 2404.78 379.302" stroke="url(#paint44_linear_202_4302)" stroke-miterlimit="10"/>
<path d="M1.05762 270.1C201.656 134.921 460.489 4.42492 712.015 51.8577C906.685 88.5788 1082.61 251.37 1287.05 237.035C1364.58 231.583 1430.6 192.007 1487.07 141.143C1533.26 99.515 1575.21 51.537 1639.21 39.4463C1771.71 14.399 1870.35 149.674 1943.17 238.061C1990.83 295.949 2042.91 359.481 2114.22 389.083C2215.05 430.935 2314.31 386.228 2404.81 340.88" stroke="url(#paint45_linear_202_4302)" stroke-miterlimit="10"/>
<path d="M1.05762 240.402C206.656 113.209 470.841 -3.49661 720.028 44.1927C909.986 80.5611 1094.56 225.008 1293.24 210.352C1437.52 199.704 1500.5 58.1756 1630.56 29.5043C1761.32 0.704676 1867.79 128.154 1948.17 210.64C1996.5 260.254 2046.95 312.369 2112.2 339.309C2213.22 381.001 2311.26 344.023 2404.75 301.369" stroke="url(#paint46_linear_202_4302)" stroke-miterlimit="10"/>
<path d="M1.05762 210.706C212.073 92.6532 471.258 -3.17446 718.105 36.5613C909.601 67.3814 1097.57 198.327 1295.86 183.478C1432.07 173.279 1504.89 46.1184 1630.62 21.4559C1753.21 -2.56511 1858.69 98.6184 1942.88 172.542C1994.87 218.211 2048.36 266.124 2113.84 291.492C2214.12 330.362 2310.04 300.536 2404.81 261.314" stroke="url(#paint47_linear_202_4302)" stroke-miterlimit="10"/>
<path d="M1.05762 181.008C215.246 74.7896 471.547 -3.65563 713.938 30.9167C905.563 58.2411 1097.99 171.515 1294.65 157.244C1425.34 147.751 1509.89 37.4271 1633.31 14.9775C1755.07 -7.18342 1865.96 84.2505 1957.02 151.054C2006.47 187.326 2058 224.015 2116.34 244.669C2216.88 280.268 2308.63 256.792 2404.78 221.129" stroke="url(#paint48_linear_202_4302)" stroke-miterlimit="10"/>
<path d="M1.05762 151.31C217.521 58.6894 470.233 -3.33565 707.849 26.0412C899.794 49.7737 1094.02 144.479 1289.61 131.522C1417.97 123.023 1516.11 30.7557 1639.95 10.6472C1754.24 -7.88972 1861.99 61.1267 1955.51 117.315C2107.52 208.653 2232.96 237.484 2404.78 181.2" stroke="url(#paint49_linear_202_4302)" stroke-miterlimit="10"/>
<path d="M1.05762 121.613C218.803 44.2257 458.502 1.60357 690.382 21.1989C886.333 37.7795 1081.2 115.198 1279.17 105.257C1411.95 98.5858 1525.72 19.884 1656.42 6.54248C1764.4 -4.48989 1866.32 44.6106 1961.31 89.5097C2113.68 161.573 2239.28 188.769 2404.78 142.106" stroke="url(#paint50_linear_202_4302)" stroke-miterlimit="10"/>
<path d="M1.05762 91.9155C222.713 30.4036 459.368 1.76437 689.516 18.0884C881.59 31.7185 1074.4 88.965 1267.76 80.6586C1403.55 74.8217 1530.28 17.0301 1665.01 5.16388C1778.4 -4.81015 1884.87 34.7653 1990.32 71.2619C2131.94 120.298 2256.74 138.547 2404.78 104.295" stroke="url(#paint51_linear_202_4302)" stroke-miterlimit="10"/>
<path d="M1.05762 62.2496C219.476 19.916 445.747 3.20714 668.203 13.1491C861.912 21.8082 1055.4 59.7801 1249.65 54.6488C1398.36 50.7361 1543.45 11.0645 1691.84 3.33543C1797.73 -2.18076 1900.1 22.2252 2002.56 45.9255C2139.03 77.4832 2265.53 92.1717 2404.78 68.1506" stroke="url(#paint52_linear_202_4302)" stroke-miterlimit="10"/>
<path d="M1.05762 32.5515C217.745 10.1019 436.645 3.20667 654.454 8.1135C845.951 12.4431 1037.35 31.5252 1229.01 28.9596C1392.01 26.7787 1554.18 6.38168 1717.12 2.34075C1948.23 -3.39993 2172.97 57.5347 2404.78 34.1871" stroke="url(#paint53_linear_202_4302)" stroke-miterlimit="10"/>
<path d="M1.05762 2.85408C802.267 -1.5717 1603.57 7.69677 2404.78 2.85408" stroke="url(#paint54_linear_202_4302)" stroke-miterlimit="10"/>
<defs>
<linearGradient id="paint0_linear_202_4302" x1="1202.92" y1="1603.22" x2="1202.92" y2="1606.36" gradientUnits="userSpaceOnUse">
<stop stop-color="#333333"/>
<stop offset="1" stop-color="#333333" stop-opacity="0"/>
</linearGradient>
<linearGradient id="paint1_linear_202_4302" x1="1202.92" y1="1519.3" x2="1202.92" y2="1576.67" gradientUnits="userSpaceOnUse">
<stop stop-color="#333333"/>
<stop offset="1" stop-color="#333333" stop-opacity="0"/>
</linearGradient>
<linearGradient id="paint2_linear_202_4302" x1="1202.92" y1="1441.85" x2="1202.92" y2="1546.97" gradientUnits="userSpaceOnUse">
<stop stop-color="#333333"/>
<stop offset="1" stop-color="#333333" stop-opacity="0"/>
</linearGradient>
<linearGradient id="paint3_linear_202_4302" x1="1202.94" y1="1367.02" x2="1202.94" y2="1517.3" gradientUnits="userSpaceOnUse">
<stop stop-color="#333333"/>
<stop offset="1" stop-color="#333333" stop-opacity="0"/>
</linearGradient>
<linearGradient id="paint4_linear_202_4302" x1="1202.92" y1="1302.38" x2="1202.92" y2="1493.53" gradientUnits="userSpaceOnUse">
<stop stop-color="#333333"/>
<stop offset="1" stop-color="#333333" stop-opacity="0"/>
</linearGradient>
<linearGradient id="paint5_linear_202_4302" x1="1202.92" y1="1236.41" x2="1202.92" y2="1474.54" gradientUnits="userSpaceOnUse">
<stop stop-color="#333333"/>
<stop offset="1" stop-color="#333333" stop-opacity="0"/>
</linearGradient>
<linearGradient id="paint6_linear_202_4302" x1="1202.9" y1="1177.47" x2="1202.9" y2="1457.72" gradientUnits="userSpaceOnUse">
<stop stop-color="#333333"/>
<stop offset="1" stop-color="#333333" stop-opacity="0"/>
</linearGradient>
<linearGradient id="paint7_linear_202_4302" x1="1202.92" y1="1125.18" x2="1202.92" y2="1442.52" gradientUnits="userSpaceOnUse">
<stop stop-color="#333333"/>
<stop offset="1" stop-color="#333333" stop-opacity="0"/>
</linearGradient>
<linearGradient id="paint8_linear_202_4302" x1="1202.92" y1="1073.08" x2="1202.92" y2="1428.31" gradientUnits="userSpaceOnUse">
<stop stop-color="#333333"/>
<stop offset="1" stop-color="#333333" stop-opacity="0"/>
</linearGradient>
<linearGradient id="paint9_linear_202_4302" x1="1202.92" y1="1022.06" x2="1202.92" y2="1414.6" gradientUnits="userSpaceOnUse">
<stop stop-color="#333333"/>
<stop offset="1" stop-color="#333333" stop-opacity="0"/>
</linearGradient>
<linearGradient id="paint10_linear_202_4302" x1="1202.9" y1="975.486" x2="1202.9" y2="1400.34" gradientUnits="userSpaceOnUse">
<stop stop-color="#333333"/>
<stop offset="1" stop-color="#333333" stop-opacity="0"/>
</linearGradient>
<linearGradient id="paint11_linear_202_4302" x1="1202.92" y1="930.885" x2="1202.92" y2="1385.69" gradientUnits="userSpaceOnUse">
<stop stop-color="#333333"/>
<stop offset="1" stop-color="#333333" stop-opacity="0"/>
</linearGradient>
<linearGradient id="paint12_linear_202_4302" x1="1202.92" y1="888.156" x2="1202.92" y2="1370.3" gradientUnits="userSpaceOnUse">
<stop stop-color="#333333"/>
<stop offset="1" stop-color="#333333" stop-opacity="0"/>
</linearGradient>
<linearGradient id="paint13_linear_202_4302" x1="1202.94" y1="845.824" x2="1202.94" y2="1353.4" gradientUnits="userSpaceOnUse">
<stop stop-color="#333333"/>
<stop offset="1" stop-color="#333333" stop-opacity="0"/>
</linearGradient>
<linearGradient id="paint14_linear_202_4302" x1="1202.92" y1="816.26" x2="1202.92" y2="1321.62" gradientUnits="userSpaceOnUse">
<stop stop-color="#333333"/>
<stop offset="1" stop-color="#333333" stop-opacity="0"/>
</linearGradient>
<linearGradient id="paint15_linear_202_4302" x1="1202.94" y1="796.346" x2="1202.94" y2="1280.34" gradientUnits="userSpaceOnUse">
<stop stop-color="#333333"/>
<stop offset="1" stop-color="#333333" stop-opacity="0"/>
</linearGradient>
<linearGradient id="paint16_linear_202_4302" x1="1202.94" y1="776.588" x2="1202.94" y2="1243.59" gradientUnits="userSpaceOnUse">
<stop stop-color="#333333"/>
<stop offset="1" stop-color="#333333" stop-opacity="0"/>
</linearGradient>
<linearGradient id="paint17_linear_202_4302" x1="1202.9" y1="753.545" x2="1202.9" y2="1211.28" gradientUnits="userSpaceOnUse">
<stop stop-color="#333333"/>
<stop offset="1" stop-color="#333333" stop-opacity="0"/>
</linearGradient>
<linearGradient id="paint18_linear_202_4302" x1="1202.92" y1="730.883" x2="1202.92" y2="1183.42" gradientUnits="userSpaceOnUse">
<stop stop-color="#333333"/>
<stop offset="1" stop-color="#333333" stop-opacity="0"/>
</linearGradient>
<linearGradient id="paint19_linear_202_4302" x1="1202.94" y1="705.305" x2="1202.94" y2="1158.68" gradientUnits="userSpaceOnUse">
<stop stop-color="#333333"/>
<stop offset="1" stop-color="#333333" stop-opacity="0"/>
</linearGradient>
<linearGradient id="paint20_linear_202_4302" x1="1202.94" y1="679.205" x2="1202.94" y2="1138.63" gradientUnits="userSpaceOnUse">
<stop stop-color="#333333"/>
<stop offset="1" stop-color="#333333" stop-opacity="0"/>
</linearGradient>
<linearGradient id="paint21_linear_202_4302" x1="1202.94" y1="651.375" x2="1202.94" y2="1120.36" gradientUnits="userSpaceOnUse">
<stop stop-color="#333333"/>
<stop offset="1" stop-color="#333333" stop-opacity="0"/>
</linearGradient>
<linearGradient id="paint22_linear_202_4302" x1="1202.94" y1="619.934" x2="1202.94" y2="1101.67" gradientUnits="userSpaceOnUse">
<stop stop-color="#333333"/>
<stop offset="1" stop-color="#333333" stop-opacity="0"/>
</linearGradient>
<linearGradient id="paint23_linear_202_4302" x1="1202.92" y1="586.299" x2="1202.92" y2="1079.57" gradientUnits="userSpaceOnUse">
<stop stop-color="#333333"/>
<stop offset="1" stop-color="#333333" stop-opacity="0"/>
</linearGradient>
<linearGradient id="paint24_linear_202_4302" x1="1202.94" y1="554.277" x2="1202.94" y2="1049.88" gradientUnits="userSpaceOnUse">
<stop stop-color="#333333"/>
<stop offset="1" stop-color="#333333" stop-opacity="0"/>
</linearGradient>
<linearGradient id="paint25_linear_202_4302" x1="1202.9" y1="522.375" x2="1202.9" y2="1011.2" gradientUnits="userSpaceOnUse">
<stop stop-color="#333333"/>
<stop offset="1" stop-color="#333333" stop-opacity="0"/>
</linearGradient>
<linearGradient id="paint26_linear_202_4302" x1="1202.92" y1="481.969" x2="1202.92" y2="959.692" gradientUnits="userSpaceOnUse">
<stop stop-color="#333333"/>
<stop offset="1" stop-color="#333333" stop-opacity="0"/>
</linearGradient>
<linearGradient id="paint27_linear_202_4302" x1="1202.92" y1="436.25" x2="1202.92" y2="891.214" gradientUnits="userSpaceOnUse">
<stop stop-color="#333333"/>
<stop offset="1" stop-color="#333333" stop-opacity="0"/>
</linearGradient>
<linearGradient id="paint28_linear_202_4302" x1="1202.92" y1="415.123" x2="1202.92" y2="857.395" gradientUnits="userSpaceOnUse">
<stop stop-color="#333333"/>
<stop offset="1" stop-color="#333333" stop-opacity="0"/>
</linearGradient>
<linearGradient id="paint29_linear_202_4302" x1="1202.9" y1="399.49" x2="1202.9" y2="820.537" gradientUnits="userSpaceOnUse">
<stop stop-color="#333333"/>
<stop offset="1" stop-color="#333333" stop-opacity="0"/>
</linearGradient>
<linearGradient id="paint30_linear_202_4302" x1="1202.92" y1="388.205" x2="1202.92" y2="783.106" gradientUnits="userSpaceOnUse">
<stop stop-color="#333333"/>
<stop offset="1" stop-color="#333333" stop-opacity="0"/>
</linearGradient>
<linearGradient id="paint31_linear_202_4302" x1="1202.9" y1="379.738" x2="1202.9" y2="755.887" gradientUnits="userSpaceOnUse">
<stop stop-color="#333333"/>
<stop offset="1" stop-color="#333333" stop-opacity="0"/>
</linearGradient>
<linearGradient id="paint32_linear_202_4302" x1="1202.94" y1="380.395" x2="1202.94" y2="733.518" gradientUnits="userSpaceOnUse">
<stop stop-color="#333333"/>
<stop offset="1" stop-color="#333333" stop-opacity="0"/>
</linearGradient>
<linearGradient id="paint33_linear_202_4302" x1="1202.92" y1="372.635" x2="1202.92" y2="715.33" gradientUnits="userSpaceOnUse">
<stop stop-color="#333333"/>
<stop offset="1" stop-color="#333333" stop-opacity="0"/>
</linearGradient>
<linearGradient id="paint34_linear_202_4302" x1="1202.92" y1="362.75" x2="1202.92" y2="708.812" gradientUnits="userSpaceOnUse">
<stop stop-color="#333333"/>
<stop offset="1" stop-color="#333333" stop-opacity="0"/>
</linearGradient>
<linearGradient id="paint35_linear_202_4302" x1="1202.9" y1="349.209" x2="1202.9" y2="697.827" gradientUnits="userSpaceOnUse">
<stop stop-color="#333333"/>
<stop offset="1" stop-color="#333333" stop-opacity="0"/>
</linearGradient>
<linearGradient id="paint36_linear_202_4302" x1="1202.92" y1="330.736" x2="1202.92" y2="686.956" gradientUnits="userSpaceOnUse">
<stop stop-color="#333333"/>
<stop offset="1" stop-color="#333333" stop-opacity="0"/>
</linearGradient>
<linearGradient id="paint37_linear_202_4302" x1="1202.95" y1="288.529" x2="1202.95" y2="675.632" gradientUnits="userSpaceOnUse">
<stop stop-color="#333333"/>
<stop offset="1" stop-color="#333333" stop-opacity="0"/>
</linearGradient>
<linearGradient id="paint38_linear_202_4302" x1="1202.92" y1="240.287" x2="1202.92" y2="662.386" gradientUnits="userSpaceOnUse">
<stop stop-color="#333333"/>
<stop offset="1" stop-color="#333333" stop-opacity="0"/>
</linearGradient>
<linearGradient id="paint39_linear_202_4302" x1="1202.92" y1="192.928" x2="1202.92" y2="646.821" gradientUnits="userSpaceOnUse">
<stop stop-color="#333333"/>
<stop offset="1" stop-color="#333333" stop-opacity="0"/>
</linearGradient>
<linearGradient id="paint40_linear_202_4302" x1="1202.9" y1="147.863" x2="1202.9" y2="626.213" gradientUnits="userSpaceOnUse">
<stop stop-color="#333333"/>
<stop offset="1" stop-color="#333333" stop-opacity="0"/>
</linearGradient>
<linearGradient id="paint41_linear_202_4302" x1="1202.9" y1="105.783" x2="1202.9" y2="592.039" gradientUnits="userSpaceOnUse">
<stop stop-color="#333333"/>
<stop offset="1" stop-color="#333333" stop-opacity="0"/>
</linearGradient>
<linearGradient id="paint42_linear_202_4302" x1="1202.92" y1="84.2949" x2="1202.92" y2="546.388" gradientUnits="userSpaceOnUse">
<stop stop-color="#333333"/>
<stop offset="1" stop-color="#333333" stop-opacity="0"/>
</linearGradient>
<linearGradient id="paint43_linear_202_4302" x1="1202.92" y1="66.4238" x2="1202.92" y2="499.686" gradientUnits="userSpaceOnUse">
<stop stop-color="#333333"/>
<stop offset="1" stop-color="#333333" stop-opacity="0"/>
</linearGradient>
<linearGradient id="paint44_linear_202_4302" x1="1202.92" y1="49.7266" x2="1202.92" y2="452.79" gradientUnits="userSpaceOnUse">
<stop stop-color="#333333"/>
<stop offset="1" stop-color="#333333" stop-opacity="0"/>
</linearGradient>
<linearGradient id="paint45_linear_202_4302" x1="1202.94" y1="36.4043" x2="1202.94" y2="405.766" gradientUnits="userSpaceOnUse">
<stop stop-color="#333333"/>
<stop offset="1" stop-color="#333333" stop-opacity="0"/>
</linearGradient>
<linearGradient id="paint46_linear_202_4302" x1="1202.9" y1="25.3496" x2="1202.9" y2="357.576" gradientUnits="userSpaceOnUse">
<stop stop-color="#333333"/>
<stop offset="1" stop-color="#333333" stop-opacity="0"/>
</linearGradient>
<linearGradient id="paint47_linear_202_4302" x1="1202.94" y1="17.8516" x2="1202.94" y2="309.662" gradientUnits="userSpaceOnUse">
<stop stop-color="#333333"/>
<stop offset="1" stop-color="#333333" stop-opacity="0"/>
</linearGradient>
<linearGradient id="paint48_linear_202_4302" x1="1202.92" y1="11.5937" x2="1202.92" y2="262.348" gradientUnits="userSpaceOnUse">
<stop stop-color="#333333"/>
<stop offset="1" stop-color="#333333" stop-opacity="0"/>
</linearGradient>
<linearGradient id="paint49_linear_202_4302" x1="1202.92" y1="7.57227" x2="1202.92" y2="209.99" gradientUnits="userSpaceOnUse">
<stop stop-color="#333333"/>
<stop offset="1" stop-color="#333333" stop-opacity="0"/>
</linearGradient>
<linearGradient id="paint50_linear_202_4302" x1="1202.92" y1="4.9707" x2="1202.92" y2="165.228" gradientUnits="userSpaceOnUse">
<stop stop-color="#333333"/>
<stop offset="1" stop-color="#333333" stop-opacity="0"/>
</linearGradient>
<linearGradient id="paint51_linear_202_4302" x1="1202.92" y1="3.59961" x2="1202.92" y2="121.897" gradientUnits="userSpaceOnUse">
<stop stop-color="#333333"/>
<stop offset="1" stop-color="#333333" stop-opacity="0"/>
</linearGradient>
<linearGradient id="paint52_linear_202_4302" x1="1202.92" y1="2.54687" x2="1202.92" y2="80.0872" gradientUnits="userSpaceOnUse">
<stop stop-color="#333333"/>
<stop offset="1" stop-color="#333333" stop-opacity="0"/>
</linearGradient>
<linearGradient id="paint53_linear_202_4302" x1="1202.92" y1="1.95703" x2="1202.92" y2="39.5401" gradientUnits="userSpaceOnUse">
<stop stop-color="#333333"/>
<stop offset="1" stop-color="#333333" stop-opacity="0"/>
</linearGradient>
<linearGradient id="paint54_linear_202_4302" x1="1202.92" y1="1.61914" x2="1202.92" y2="4.29743" gradientUnits="userSpaceOnUse">
<stop stop-color="#333333"/>
<stop offset="1" stop-color="#333333" stop-opacity="0"/>
</linearGradient>
</defs>
</svg>
