<svg width="30" height="31" viewBox="0 0 30 31" fill="none" xmlns="http://www.w3.org/2000/svg">
<g clip-path="url(#clip0_202_4376)">
<path d="M15 30.5175C23.2843 30.5175 30 23.8018 30 15.5175C30 7.23322 23.2843 0.517578 15 0.517578C6.71573 0.517578 0 7.23322 0 15.5175C0 23.8018 6.71573 30.5175 15 30.5175Z" fill="#666666"/>
<path d="M0 45.5C8.28427 45.5 15 38.7843 15 30.5C15 22.2157 8.28427 15.5 0 15.5C-8.28427 15.5 -15 22.2157 -15 30.5C-15 38.7843 -8.28427 45.5 0 45.5Z" fill="#1A1A1A"/>
<path d="M30 45.5C38.2843 45.5 45 38.7843 45 30.5C45 22.2157 38.2843 15.5 30 15.5C21.7157 15.5 15 22.2157 15 30.5C15 38.7843 21.7157 45.5 30 45.5Z" fill="#1A1A1A"/>
<path d="M0 15.5C8.28427 15.5 15 8.78427 15 0.5C15 -7.78427 8.28427 -14.5 0 -14.5C-8.28427 -14.5 -15 -7.78427 -15 0.5C-15 8.78427 -8.28427 15.5 0 15.5Z" fill="#1A1A1A"/>
<path d="M30 15.5C38.2843 15.5 45 8.78427 45 0.5C45 -7.78427 38.2843 -14.5 30 -14.5C21.7157 -14.5 15 -7.78427 15 0.5C15 8.78427 21.7157 15.5 30 15.5Z" fill="#1A1A1A"/>
</g>
<defs>
<clipPath id="clip0_202_4376">
<rect width="30" height="30" fill="white" transform="translate(0 0.5)"/>
</clipPath>
</defs>
</svg>
