<svg width="9" height="9" viewBox="0 0 9 9" fill="none" xmlns="http://www.w3.org/2000/svg">
<g clip-path="url(#clip0_202_4390)">
<path d="M4.2 8.70662C6.5196 8.70662 8.4 6.82621 8.4 4.50662C8.4 2.18702 6.5196 0.306641 4.2 0.306641C1.8804 0.306641 0 2.18702 0 4.50662C0 6.82621 1.8804 8.70662 4.2 8.70662Z" fill="#333333"/>
<path d="M4.91142e-05 12.902C2.31965 12.902 4.20005 11.0215 4.20005 8.70195C4.20005 6.38236 2.31965 4.50195 4.91142e-05 4.50195C-2.31955 4.50195 -4.19995 6.38236 -4.19995 8.70195C-4.19995 11.0215 -2.31955 12.902 4.91142e-05 12.902Z" fill="#1A1A1A"/>
<path d="M8.39995 12.902C10.7195 12.902 12.6 11.0215 12.6 8.70195C12.6 6.38236 10.7195 4.50195 8.39995 4.50195C6.08036 4.50195 4.19995 6.38236 4.19995 8.70195C4.19995 11.0215 6.08036 12.902 8.39995 12.902Z" fill="#1A1A1A"/>
<path d="M4.91142e-05 4.50156C2.31965 4.50156 4.20005 2.62116 4.20005 0.301562C4.20005 -2.01803 2.31965 -3.89844 4.91142e-05 -3.89844C-2.31955 -3.89844 -4.19995 -2.01803 -4.19995 0.301562C-4.19995 2.62116 -2.31955 4.50156 4.91142e-05 4.50156Z" fill="#1A1A1A"/>
<path d="M8.39995 4.50156C10.7195 4.50156 12.6 2.62116 12.6 0.301562C12.6 -2.01803 10.7195 -3.89844 8.39995 -3.89844C6.08036 -3.89844 4.19995 -2.01803 4.19995 0.301562C4.19995 2.62116 6.08036 4.50156 8.39995 4.50156Z" fill="#1A1A1A"/>
</g>
<defs>
<clipPath id="clip0_202_4390">
<rect width="8.4" height="8.4" fill="white" transform="translate(0 0.300781)"/>
</clipPath>
</defs>
</svg>
