<svg width="9" height="10" viewBox="0 0 9 10" fill="none" xmlns="http://www.w3.org/2000/svg">
<g clip-path="url(#clip0_202_549)">
<path d="M4.2 9.20417C6.5196 9.20417 8.4 7.32377 8.4 5.00418C8.4 2.68458 6.5196 0.804199 4.2 0.804199C1.8804 0.804199 0 2.68458 0 5.00418C0 7.32377 1.8804 9.20417 4.2 9.20417Z" fill="#333333"/>
<path d="M-0.000195026 13.3995C2.3194 13.3995 4.19981 11.5191 4.19981 9.19951C4.19981 6.87992 2.3194 4.99951 -0.000195026 4.99951C-2.31979 4.99951 -4.2002 6.87992 -4.2002 9.19951C-4.2002 11.5191 -2.31979 13.3995 -0.000195026 13.3995Z" fill="#141414"/>
<path d="M8.39971 13.3995C10.7193 13.3995 12.5997 11.5191 12.5997 9.19951C12.5997 6.87992 10.7193 4.99951 8.39971 4.99951C6.08011 4.99951 4.19971 6.87992 4.19971 9.19951C4.19971 11.5191 6.08011 13.3995 8.39971 13.3995Z" fill="#141414"/>
<path d="M-0.000195026 4.99961C2.3194 4.99961 4.19981 3.1192 4.19981 0.799609C4.19981 -1.51999 2.3194 -3.40039 -0.000195026 -3.40039C-2.31979 -3.40039 -4.2002 -1.51999 -4.2002 0.799609C-4.2002 3.1192 -2.31979 4.99961 -0.000195026 4.99961Z" fill="#141414"/>
<path d="M8.39971 4.99961C10.7193 4.99961 12.5997 3.1192 12.5997 0.799609C12.5997 -1.51999 10.7193 -3.40039 8.39971 -3.40039C6.08011 -3.40039 4.19971 -1.51999 4.19971 0.799609C4.19971 3.1192 6.08011 4.99961 8.39971 4.99961Z" fill="#141414"/>
</g>
<defs>
<clipPath id="clip0_202_549">
<rect width="8.4" height="8.4" fill="white" transform="translate(0 0.799805)"/>
</clipPath>
</defs>
</svg>
