<svg width="18" height="19" viewBox="0 0 18 19" fill="none" xmlns="http://www.w3.org/2000/svg">
<g clip-path="url(#clip0_202_4383)">
<path d="M9 18.5097C13.9706 18.5097 18 14.4803 18 9.50972C18 4.53915 13.9706 0.509766 9 0.509766C4.02944 0.509766 0 4.53915 0 9.50972C0 14.4803 4.02944 18.5097 9 18.5097Z" fill="#333333"/>
<path d="M0 27.5C4.97056 27.5 9 23.4706 9 18.5C9 13.5294 4.97056 9.5 0 9.5C-4.97056 9.5 -9 13.5294 -9 18.5C-9 23.4706 -4.97056 27.5 0 27.5Z" fill="#1A1A1A"/>
<path d="M18 27.5C22.9706 27.5 27 23.4706 27 18.5C27 13.5294 22.9706 9.5 18 9.5C13.0294 9.5 9 13.5294 9 18.5C9 23.4706 13.0294 27.5 18 27.5Z" fill="#1A1A1A"/>
<path d="M0 9.5C4.97056 9.5 9 5.47056 9 0.5C9 -4.47056 4.97056 -8.5 0 -8.5C-4.97056 -8.5 -9 -4.47056 -9 0.5C-9 5.47056 -4.97056 9.5 0 9.5Z" fill="#1A1A1A"/>
<path d="M18 9.5C22.9706 9.5 27 5.47056 27 0.5C27 -4.47056 22.9706 -8.5 18 -8.5C13.0294 -8.5 9 -4.47056 9 0.5C9 5.47056 13.0294 9.5 18 9.5Z" fill="#1A1A1A"/>
</g>
<defs>
<clipPath id="clip0_202_4383">
<rect width="18" height="18" fill="white" transform="translate(0 0.5)"/>
</clipPath>
</defs>
</svg>
