<svg width="35" height="35" viewBox="0 0 35 35" fill="none" xmlns="http://www.w3.org/2000/svg">
<path fill-rule="evenodd" clip-rule="evenodd" d="M18.8647 3.73789C18.6922 3.50656 18.433 3.35534 18.1468 3.31901C17.8605 3.28267 17.5717 3.36435 17.3469 3.54525C14.6975 5.67708 12.8496 8.76986 12.3337 12.2954C11.4036 11.6211 10.5867 10.7996 9.91743 9.86501C9.73332 9.60791 9.44427 9.44617 9.12884 9.42377C8.81342 9.40136 8.50441 9.52062 8.28581 9.74912C6.0965 12.0376 4.75 15.1435 4.75 18.5617C4.75 25.6033 10.4584 31.3117 17.5 31.3117C24.5416 31.3117 30.25 25.6033 30.25 18.5617C30.25 13.3754 27.1536 8.91468 22.713 6.92294C21.1417 6.15582 19.8441 5.05122 18.8647 3.73789ZM22.8125 20.6873C22.8125 23.6213 20.434 25.9998 17.5 25.9998C14.566 25.9998 12.1875 23.6213 12.1875 20.6873C12.1875 20.1074 12.2804 19.5492 12.4522 19.0268C13.3425 19.6849 14.3659 20.1734 15.4746 20.4445C15.7804 18.46 16.7726 16.702 18.2011 15.4206C20.8037 15.7637 22.8125 17.9909 22.8125 20.6873Z" fill="#A685FA"/>
</svg>
