<svg width="24" height="25" viewBox="0 0 24 25" fill="none" xmlns="http://www.w3.org/2000/svg">
<path fill-rule="evenodd" clip-rule="evenodd" d="M14.6152 2.09495C14.9165 2.26289 15.0643 2.61463 14.9736 2.94736L12.982 10.25H20.25C20.5487 10.25 20.8189 10.4272 20.9379 10.7011C21.0569 10.975 21.0021 11.2934 20.7983 11.5118L10.2983 22.7618C10.063 23.0139 9.68604 23.073 9.38481 22.9051C9.08357 22.7372 8.9357 22.3854 9.02644 22.0527L11.0181 14.75H3.75002C3.45137 14.75 3.18118 14.5728 3.06216 14.2989C2.94313 14.025 2.99795 13.7066 3.20173 13.4883L13.7017 2.23829C13.937 1.98615 14.314 1.92701 14.6152 2.09495Z" fill="white"/>
</svg>
