<svg width="24" height="25" viewBox="0 0 24 25" fill="none" xmlns="http://www.w3.org/2000/svg">
<g clip-path="url(#clip0_202_1367)">
<path d="M2.83729 5.76581C2.61265 6.02998 2.38735 6.29348 2.16798 6.55106C1.73715 6.11627 1.36166 5.73815 1 5.37385C1.917 4.45554 2.85244 3.51944 3.77602 2.59519C4.70026 3.52141 5.63505 4.45751 6.55072 5.37517C6.19302 5.73288 5.81489 6.11035 5.40382 6.52141C5.16601 6.25593 4.91041 5.97069 4.59025 5.6143V9.40415C6.31555 7.67622 8.08234 5.90811 9.8386 4.14921C9.37549 4.14921 8.85112 4.11693 8.33333 4.15909C7.88472 4.19533 7.57115 4.04776 7.27866 3.71706C6.92358 3.31588 6.51976 2.95751 6.08235 2.52734C6.24769 2.51482 6.33794 2.50231 6.42885 2.50231C10.8215 2.50165 15.2141 2.49967 19.6067 2.50231C21.0086 2.50297 22.0079 3.47991 22.0099 4.87319C22.0171 9.28887 22.0125 13.7039 22.0125 18.1196C22.0125 18.1808 22.0059 18.2428 21.9209 18.3627C21.5231 17.9463 21.143 17.5109 20.72 17.1215C20.4453 16.8686 20.3347 16.6051 20.357 16.2335C20.3887 15.7138 20.365 15.1907 20.365 14.6742C18.6008 16.4404 16.8544 18.1881 15.112 19.9325H18.9091C18.554 19.6426 18.2615 19.4042 17.9743 19.1696C18.4453 18.7164 18.8287 18.3475 19.2016 17.9878C20.0837 18.8798 21.0152 19.8211 21.9401 20.7559C21.0441 21.6453 20.1047 22.5781 19.1752 23.5003C18.8261 23.1446 18.4545 22.7665 18.0586 22.3633C18.2813 22.167 18.5349 21.943 18.7885 21.719C18.7727 21.6802 18.7569 21.6413 18.7404 21.6031H18.3775C14.0507 21.6031 9.72398 21.6044 5.39723 21.6024C4.21278 21.6024 3.35903 21.028 3.03294 19.9832C2.94335 19.696 2.91765 19.3798 2.917 19.0761C2.90975 14.7704 2.91238 10.4648 2.91238 6.15909C2.91238 6.04315 2.91238 5.92655 2.91238 5.81061C2.88669 5.79546 2.861 5.78096 2.83531 5.76581H2.83729ZM4.56258 18.6828C9.40975 13.835 14.249 8.9944 19.0935 4.14921C18.4032 4.14921 17.6937 4.14328 16.9842 4.15646C16.8933 4.15843 16.7879 4.24144 16.7154 4.3139C12.7167 8.30863 8.72003 12.306 4.72596 16.306C4.65415 16.3785 4.57115 16.4839 4.56917 16.5748C4.55599 17.2836 4.56192 17.9924 4.56192 18.6821L4.56258 18.6828ZM20.365 5.45751C15.5296 10.2915 10.695 15.1255 5.86693 19.9522C6.52569 19.9522 7.22464 19.9582 7.92358 19.945C8.01449 19.943 8.11858 19.8567 8.19104 19.7836C12.1963 15.7823 16.1996 11.7783 20.1996 7.7724C20.2721 7.69994 20.3557 7.59454 20.357 7.50363C20.3702 6.80534 20.3643 6.10639 20.3643 5.45751H20.365ZM20.365 10.0873C17.0758 13.3739 13.7833 16.6637 10.4914 19.9522C11.1588 19.9522 11.857 19.9582 12.556 19.945C12.6462 19.943 12.749 19.8528 12.8221 19.7796C15.2846 17.3218 17.7444 14.8613 20.2016 12.3982C20.2734 12.3258 20.3557 12.2197 20.3577 12.1281C20.3709 11.4292 20.365 10.7302 20.365 10.0866V10.0873ZM4.56258 14.0227C7.861 10.7256 11.1462 7.44104 14.4387 4.14921C13.7793 4.14921 13.1028 4.14328 12.4262 4.1558C12.334 4.15778 12.2266 4.23485 12.1548 4.306C9.67589 6.77965 7.20026 9.25593 4.72727 11.7349C4.65547 11.8073 4.5718 11.9121 4.56983 12.0036C4.55665 12.6815 4.56258 13.3594 4.56258 14.0227Z" fill="#999999"/>
</g>
<defs>
<clipPath id="clip0_202_1367">
<rect width="21.0145" height="21" fill="white" transform="translate(1 2.5)"/>
</clipPath>
</defs>
</svg>
