<svg width="24" height="25" viewBox="0 0 24 25" fill="none" xmlns="http://www.w3.org/2000/svg">
<g clip-path="url(#clip0_202_1355)">
<path d="M2.26946 16.2617H12.11V18.0698H18.2615V16.2657H20.7054C20.8637 18.416 20.8761 20.3305 18.6707 21.7899C18.6437 21.8076 18.6221 21.8319 18.5623 21.8851C18.8335 22.1104 19.1009 22.333 19.3655 22.5531C19.0082 22.8946 18.7212 23.1691 18.3922 23.4844C18.1019 23.1849 17.7879 22.8374 17.4458 22.5209C17.3453 22.4276 17.1673 22.3895 17.0215 22.3803C16.7831 22.3659 16.5414 22.4046 16.301 22.4053C13.1057 22.4072 9.91048 22.4066 6.71457 22.4066C6.56154 22.4066 6.398 22.4361 6.25679 22.3935C5.83054 22.2654 5.55994 22.4631 5.30642 22.7685C5.09034 23.0286 4.84405 23.263 4.61877 23.5008C4.31468 23.1809 4.03949 22.8919 3.73474 22.5708C3.939 22.3902 4.19843 22.1603 4.49004 21.9015C4.28906 21.7577 4.13866 21.6579 3.99614 21.5475C2.92821 20.7246 2.3509 19.633 2.27537 18.2925C2.23793 17.6285 2.2688 16.9605 2.2688 16.2617H2.26946Z" fill="#999999"/>
<path d="M2.27554 11.2872C2.27029 11.1683 2.26109 11.0613 2.26109 10.9542C2.26044 9.21375 2.25847 7.47393 2.26109 5.73345C2.26372 3.8209 3.59108 2.48631 5.50101 2.50011C6.14203 2.5047 6.80275 2.49157 7.41882 2.63672C8.5117 2.89483 9.20001 3.65276 9.53235 4.72069C9.59671 4.92824 9.68012 5.02872 9.90803 5.09046C11.194 5.43921 12.0964 6.64113 12.1128 7.98228C12.1155 8.19836 12.1128 8.41444 12.1128 8.64891H6.02578C5.73548 7.11401 6.56959 5.52985 8.31335 5.03529C8.15573 4.35027 7.48121 3.7723 6.7732 3.74734C6.23792 3.72829 5.70067 3.72632 5.16539 3.74734C4.24261 3.78346 3.50044 4.63071 3.4965 5.64676C3.48994 7.39774 3.49453 9.14938 3.49453 10.9004C3.49453 11.0199 3.49453 11.1394 3.49453 11.2866H2.27423L2.27554 11.2872Z" fill="#999999"/>
<path d="M12.0931 15.0328C11.9644 15.0328 11.8678 15.0328 11.7713 15.0328C8.64366 15.0328 5.5154 15.0335 2.38779 15.0321C1.71459 15.0321 1.23054 14.7136 1.06043 14.1698C0.804289 13.3514 1.38423 12.5633 2.26826 12.5515C3.20877 12.539 4.14929 12.5482 5.0898 12.5482C7.29922 12.5482 9.50799 12.5482 11.7174 12.5482C11.8356 12.5482 11.9538 12.5482 12.0931 12.5482V15.0321V15.0328Z" fill="#999999"/>
<path d="M17.0237 16.8712H13.3634C13.3575 16.7556 13.3477 16.6506 13.3477 16.5455C13.3464 15.2772 13.3464 14.0083 13.3477 12.7401C13.3483 11.8225 13.8494 11.3181 14.763 11.3142C15.1019 11.3129 15.4408 11.3057 15.7797 11.3162C16.5409 11.3405 17.0381 11.8521 17.0401 12.6153C17.044 13.9387 17.0414 15.2615 17.0401 16.5849C17.0401 16.6709 17.0309 16.7563 17.0237 16.8712Z" fill="#999999"/>
<path d="M18.2832 15.0213V12.5485C18.8782 12.5485 19.4648 12.5465 20.0506 12.5491C20.356 12.5504 20.668 12.5255 20.9668 12.5747C21.619 12.6824 22.0433 13.2164 22.0164 13.8397C21.9901 14.4512 21.5389 14.9759 20.8985 15.0094C20.0394 15.0547 19.1764 15.0206 18.2839 15.0206L18.2832 15.0213Z" fill="#999999"/>
</g>
<defs>
<clipPath id="clip0_202_1355">
<rect width="21.0171" height="21" fill="white" transform="translate(1 2.5)"/>
</clipPath>
</defs>
</svg>
