<svg width="25" height="24" viewBox="0 0 25 24" fill="none" xmlns="http://www.w3.org/2000/svg">
<path d="M12.3999 7.5C11.1573 7.5 10.1499 8.50736 10.1499 9.75C10.1499 10.9926 11.1573 12 12.3999 12C13.6425 12 14.6499 10.9926 14.6499 9.75C14.6499 8.50736 13.6425 7.5 12.3999 7.5Z" fill="#999999"/>
<path fill-rule="evenodd" clip-rule="evenodd" d="M1.8999 4.875C1.8999 3.83947 2.73937 3 3.7749 3H21.0249C22.0604 3 22.8999 3.83947 22.8999 4.875V14.625C22.8999 15.6605 22.0604 16.5 21.0249 16.5H3.7749C2.73937 16.5 1.8999 15.6605 1.8999 14.625V4.875ZM8.6499 9.75C8.6499 7.67893 10.3288 6 12.3999 6C14.471 6 16.1499 7.67893 16.1499 9.75C16.1499 11.8211 14.471 13.5 12.3999 13.5C10.3288 13.5 8.6499 11.8211 8.6499 9.75ZM19.1499 9C18.7357 9 18.3999 9.33579 18.3999 9.75V9.7575C18.3999 10.1717 18.7357 10.5075 19.1499 10.5075H19.1574C19.5716 10.5075 19.9074 10.1717 19.9074 9.7575V9.75C19.9074 9.33579 19.5716 9 19.1574 9H19.1499ZM4.8999 9.75C4.8999 9.33579 5.23569 9 5.6499 9H5.6574C6.07162 9 6.4074 9.33579 6.4074 9.75V9.7575C6.4074 10.1717 6.07162 10.5075 5.6574 10.5075H5.6499C5.23569 10.5075 4.8999 10.1717 4.8999 9.7575V9.75Z" fill="#999999"/>
<path d="M2.6499 18C2.23569 18 1.8999 18.3358 1.8999 18.75C1.8999 19.1642 2.23569 19.5 2.6499 19.5C8.04995 19.5 13.2801 20.2222 18.2497 21.5749C19.4403 21.899 20.6499 21.0168 20.6499 19.7551V18.75C20.6499 18.3358 20.3141 18 19.8999 18H2.6499Z" fill="#999999"/>
</svg>
