<svg width="34" height="34" viewBox="0 0 34 34" fill="none" xmlns="http://www.w3.org/2000/svg">
<path d="M23.915 6.15629C20.9808 7.33011 17.8383 8.09397 14.5576 8.37703C13.612 8.45862 12.6547 8.50029 11.6875 8.50029H10.625C6.51738 8.50029 3.1875 11.8302 3.1875 15.9378C3.1875 19.6206 5.86422 22.6782 9.37829 23.2713C9.85184 25.2107 10.5089 27.0781 11.33 28.8541C11.9874 30.2761 13.7017 30.7242 14.9887 29.9811L15.9185 29.4443C17.1653 28.7245 17.5699 27.188 17.0123 25.9478C16.6796 25.2078 16.3826 24.4482 16.1237 23.6714C18.84 24.0369 21.451 24.7335 23.915 25.7193C24.9431 22.646 25.5 19.3569 25.5 15.9378C25.5 12.5186 24.9431 9.22953 23.915 6.15629Z" fill="#A685FA"/>
<path d="M25.8692 5.29961C27.0075 8.63685 27.625 12.2152 27.625 15.9378C27.625 19.6603 27.0074 23.2387 25.8692 26.576C25.791 26.8051 25.7107 27.0332 25.6277 27.2601C25.426 27.8111 25.7092 28.4213 26.2602 28.623C26.8112 28.8248 27.4215 28.5416 27.6232 27.9905C27.8215 27.4486 28.0069 26.9005 28.1789 26.3464C28.9208 23.9569 29.4139 21.4583 29.6281 18.8813C30.3605 18.1185 30.8125 17.0805 30.8125 15.9378C30.8125 14.795 30.3605 13.7571 29.6281 12.9943C29.4139 10.4173 28.9208 7.91869 28.1789 5.52914C28.0069 4.9751 27.8215 4.42695 27.6232 3.88506C27.4215 3.33402 26.8112 3.05082 26.2602 3.25253C25.7092 3.45424 25.426 4.06447 25.6277 4.61551C25.7107 4.84235 25.7911 5.07047 25.8692 5.29961Z" fill="#A685FA"/>
</svg>
