<svg width="35" height="34" viewBox="0 0 35 34" fill="none" xmlns="http://www.w3.org/2000/svg">
<path fill-rule="evenodd" clip-rule="evenodd" d="M2.2002 4.67499C2.2002 3.97083 2.77103 3.39999 3.4752 3.39999H21.3252C22.0294 3.39999 22.6002 3.97083 22.6002 4.67499C22.6002 5.37916 22.0294 5.94999 21.3252 5.94999H20.9002V29.325C20.9002 30.0292 20.3294 30.6 19.6252 30.6H17.0752C16.371 30.6 15.8002 30.0292 15.8002 29.325V25.075C15.8002 24.3708 15.2294 23.8 14.5252 23.8H10.2752C9.57103 23.8 9.0002 24.3708 9.0002 25.075V29.325C9.0002 30.0292 8.42936 30.6 7.7252 30.6H3.4752C2.77103 30.6 2.2002 30.0292 2.2002 29.325C2.2002 28.6208 2.77103 28.05 3.4752 28.05H3.9002V5.94999H3.4752C2.77103 5.94999 2.2002 5.37916 2.2002 4.67499ZM7.3002 9.34999C7.3002 8.88055 7.68075 8.49999 8.1502 8.49999H9.8502C10.3196 8.49999 10.7002 8.88055 10.7002 9.34999V11.05C10.7002 11.5194 10.3196 11.9 9.8502 11.9H8.1502C7.68075 11.9 7.3002 11.5194 7.3002 11.05V9.34999ZM8.1502 15.3C7.68075 15.3 7.3002 15.6806 7.3002 16.15V17.85C7.3002 18.3194 7.68075 18.7 8.1502 18.7H9.8502C10.3196 18.7 10.7002 18.3194 10.7002 17.85V16.15C10.7002 15.6806 10.3196 15.3 9.8502 15.3H8.1502ZM14.1002 9.34999C14.1002 8.88055 14.4808 8.49999 14.9502 8.49999H16.6502C17.1196 8.49999 17.5002 8.88055 17.5002 9.34999V11.05C17.5002 11.5194 17.1196 11.9 16.6502 11.9H14.9502C14.4808 11.9 14.1002 11.5194 14.1002 11.05V9.34999ZM14.9502 15.3C14.4808 15.3 14.1002 15.6806 14.1002 16.15V17.85C14.1002 18.3194 14.4808 18.7 14.9502 18.7H16.6502C17.1196 18.7 17.5002 18.3194 17.5002 17.85V16.15C17.5002 15.6806 17.1196 15.3 16.6502 15.3H14.9502Z" fill="#A685FA"/>
<path fill-rule="evenodd" clip-rule="evenodd" d="M24.7252 10.2C24.021 10.2 23.4502 10.7708 23.4502 11.475V28.9C23.4502 29.8389 24.2113 30.6 25.1502 30.6H31.5252C32.2294 30.6 32.8002 30.0292 32.8002 29.325C32.8002 28.6208 32.2294 28.05 31.5252 28.05H31.1002V12.75H31.5252C32.2294 12.75 32.8002 12.1792 32.8002 11.475C32.8002 10.7708 32.2294 10.2 31.5252 10.2H24.7252ZM25.5752 16.15C25.5752 15.6806 25.9558 15.3 26.4252 15.3H28.1252C28.5946 15.3 28.9752 15.6806 28.9752 16.15V17.85C28.9752 18.3194 28.5946 18.7 28.1252 18.7H26.4252C25.9558 18.7 25.5752 18.3194 25.5752 17.85V16.15ZM26.4252 22.1C25.9558 22.1 25.5752 22.4806 25.5752 22.95V24.65C25.5752 25.1194 25.9558 25.5 26.4252 25.5H28.1252C28.5946 25.5 28.9752 25.1194 28.9752 24.65V22.95C28.9752 22.4806 28.5946 22.1 28.1252 22.1H26.4252Z" fill="#A685FA"/>
</svg>
