<svg width="24" height="25" viewBox="0 0 24 25" fill="none" xmlns="http://www.w3.org/2000/svg">
<g clip-path="url(#clip0_202_1346)">
<path d="M12.0119 19.9599C9.01369 19.9599 6.01627 19.9599 3.01806 19.9599C2.71493 19.9599 2.57479 20.0987 2.57479 20.3979C2.57479 20.4754 2.57872 20.553 2.574 20.6297C2.5677 20.7227 2.55825 20.8157 2.54093 20.9064C2.47637 21.2374 2.15907 21.5026 1.77957 21.4987C1.39849 21.4948 1.08277 21.2119 1.02529 20.8483C1.01191 20.763 1.00482 20.6754 1.00482 20.5894C1.00403 18.8281 0.992223 17.0661 1.00876 15.3049C1.0182 14.2785 1.39771 13.3855 2.12521 12.6421C2.56691 12.1909 3.09207 11.87 3.69282 11.6654C4.16522 11.5049 4.65338 11.4561 5.15098 11.4561C9.76246 11.4576 14.3739 11.4537 18.9854 11.4592C20.3365 11.4607 21.4309 11.9971 22.2419 13.0638C22.6403 13.5886 22.8781 14.1847 22.9592 14.8359C22.9867 15.0553 22.9985 15.2785 22.9993 15.5002C23.0025 17.2103 23.0017 18.9204 23.0009 20.6305C23.0009 20.8979 22.934 21.1413 22.7104 21.3181C22.4741 21.5049 22.2104 21.5537 21.9293 21.4398C21.66 21.3297 21.49 21.1274 21.4514 20.8382C21.4317 20.6925 21.4341 20.5429 21.4301 20.3956C21.4238 20.1576 21.3238 20.0142 21.1239 19.97C21.0798 19.9599 21.0333 19.9607 20.9876 19.9607C17.9965 19.9607 15.0054 19.9607 12.0135 19.9607L12.0119 19.9599Z" fill="#999999"/>
<path d="M11.9025 4.5C13.8472 4.5 15.7912 4.5 17.7351 4.5C18.3862 4.5 18.9949 4.64341 19.52 5.03953C20.1956 5.54884 20.59 6.21938 20.6231 7.06124C20.6514 7.77519 20.6388 8.4907 20.642 9.20543C20.6444 9.66589 20.642 10.1264 20.642 10.5868C20.642 10.6279 20.6396 10.6713 20.6286 10.7109C20.5948 10.8357 20.5263 10.8853 20.3971 10.8612C20.2562 10.8349 20.12 10.7783 19.979 10.7628C19.6476 10.7271 19.3153 10.7023 18.9823 10.6853C18.7602 10.6736 18.6917 10.6341 18.6602 10.4194C18.5595 9.73876 17.9194 9.12636 17.1005 9.13566C16.1872 9.14574 15.2739 9.13798 14.3613 9.13798C13.6819 9.13798 13.1016 9.53643 12.8709 10.1643C12.8378 10.2543 12.8252 10.3519 12.8079 10.4465C12.7756 10.6163 12.7119 10.6798 12.5402 10.6822C12.1804 10.686 11.8198 10.686 11.46 10.6822C11.2946 10.6806 11.2293 10.6163 11.1994 10.4279C11.1576 10.1636 11.0537 9.92791 10.8836 9.72093C10.5758 9.34574 10.1774 9.14186 9.68609 9.13953C8.74363 9.13488 7.80118 9.13721 6.85794 9.13876C6.06587 9.13953 5.44623 9.74884 5.34545 10.4178C5.31317 10.6341 5.24782 10.6721 5.02579 10.686C4.6581 10.7101 4.29041 10.7442 3.92351 10.7829C3.81092 10.7946 3.70305 10.8426 3.59125 10.8612C3.47078 10.8806 3.41488 10.8403 3.38103 10.724C3.36764 10.6783 3.36134 10.6295 3.36134 10.5814C3.36055 9.47674 3.3456 8.37209 3.36449 7.26744C3.38418 6.11163 3.92666 5.26202 4.988 4.74806C5.40844 4.54574 5.86431 4.5 6.3257 4.5C8.18462 4.5 10.0435 4.5 11.9025 4.5Z" fill="#999999"/>
</g>
<defs>
<clipPath id="clip0_202_1346">
<rect width="22" height="17" fill="white" transform="translate(1 4.5)"/>
</clipPath>
</defs>
</svg>
