<svg width="25" height="24" viewBox="0 0 25 24" fill="none" xmlns="http://www.w3.org/2000/svg">
<path d="M19.2062 3.70505C19.5955 3.56349 19.7963 3.13317 19.6548 2.7439C19.5132 2.35462 19.0829 2.1538 18.6936 2.29536L6.20007 6.83846V3.00021C6.20007 2.58599 5.86429 2.25021 5.45007 2.25021H3.95007C3.53586 2.25021 3.20007 2.58599 3.20007 3.00021V7.92937L2.1936 8.29536C1.80433 8.43691 1.60351 8.86724 1.74507 9.25651C1.88662 9.64579 2.31694 9.8466 2.70622 9.70505L19.2062 3.70505Z" fill="#999999"/>
<path fill-rule="evenodd" clip-rule="evenodd" d="M3.21903 11.1147L18.2001 5.66708V9.08858L22.2062 10.5454C22.5955 10.6869 22.7963 11.1172 22.6548 11.5065C22.5132 11.8958 22.0829 12.0966 21.6936 11.955L21.1999 11.7755V20.2502H21.9501C22.3643 20.2502 22.7001 20.586 22.7001 21.0002C22.7001 21.4144 22.3643 21.7502 21.9501 21.7502H2.45007C2.03586 21.7502 1.70007 21.4144 1.70007 21.0002C1.70007 20.586 2.03586 20.2502 2.45007 20.2502H3.20007V11.1215L3.21903 11.1147ZM18.2001 20.2502V10.6847L19.6999 11.2301V20.2502H18.2001ZM9.20007 14.2502C8.78586 14.2502 8.45007 14.586 8.45007 15.0002V19.5002C8.45007 19.9144 8.78586 20.2502 9.20007 20.2502H12.2001C12.6143 20.2502 12.9501 19.9144 12.9501 19.5002V15.0002C12.9501 14.586 12.6143 14.2502 12.2001 14.2502H9.20007Z" fill="#999999"/>
</svg>
