<svg width="102" height="21" viewBox="0 0 102 21" fill="none" xmlns="http://www.w3.org/2000/svg">
<path d="M98.8204 20.3603V12.3536C98.8204 11.4286 98.5217 10.6675 97.9243 10.0701C97.3462 9.4727 96.5947 9.17402 95.6697 9.17402C95.0531 9.17402 94.5039 9.30891 94.0221 9.57869C93.5403 9.84847 93.1646 10.2242 92.8948 10.706C92.625 11.1877 92.4901 11.737 92.4901 12.3536L91.2472 11.6599C91.2472 10.6 91.4784 9.66541 91.9409 8.85606C92.4034 8.02744 93.0393 7.38189 93.8487 6.91941C94.6773 6.43765 95.6023 6.19678 96.6236 6.19678C97.6642 6.19678 98.5891 6.46656 99.3985 7.00612C100.208 7.52642 100.844 8.21051 101.306 9.0584C101.769 9.88701 102 10.7542 102 11.6599V20.3603H98.8204ZM89.3105 20.3603V6.48583H92.4901V20.3603H89.3105Z" fill="white"/>
<path d="M82.5649 20.3604V6.48586H85.7445V20.3604H82.5649ZM84.1547 3.9422C83.6152 3.9422 83.1623 3.75914 82.7962 3.393C82.4493 3.02687 82.2759 2.57402 82.2759 2.03446C82.2759 1.49489 82.4493 1.04204 82.7962 0.675909C83.1623 0.309776 83.6152 0.126709 84.1547 0.126709C84.7136 0.126709 85.1664 0.309776 85.5133 0.675909C85.8601 1.04204 86.0336 1.49489 86.0336 2.03446C86.0336 2.57402 85.8601 3.02687 85.5133 3.393C85.1664 3.75914 84.7136 3.9422 84.1547 3.9422Z" fill="white"/>
<path d="M73.5412 20.6494C72.1537 20.6494 70.9011 20.3411 69.7835 19.7244C68.6851 19.0885 67.8083 18.2214 67.1531 17.123C66.5172 16.0246 66.1992 14.7913 66.1992 13.4231C66.1992 12.0549 66.5172 10.8313 67.1531 9.75212C67.789 8.65372 68.6465 7.78656 69.7257 7.15065C70.8241 6.51473 72.0381 6.19678 73.3677 6.19678C74.6588 6.19678 75.7958 6.49546 76.7785 7.09284C77.7806 7.69021 78.561 8.5092 79.1199 9.54979C79.698 10.5904 79.987 11.7755 79.987 13.1051C79.987 13.3364 79.9677 13.5773 79.9292 13.8278C79.9099 14.059 79.8714 14.3192 79.8136 14.6082H68.4249V12.0067H78.166L76.9809 13.0473C76.9423 12.1994 76.7785 11.4864 76.4895 10.9083C76.2004 10.3302 75.7861 9.88701 75.2466 9.57869C74.7263 9.27037 74.0807 9.11621 73.3099 9.11621C72.5006 9.11621 71.7972 9.28964 71.1998 9.6365C70.6025 9.98336 70.14 10.4748 69.8124 11.1107C69.4848 11.7273 69.321 12.4692 69.321 13.3364C69.321 14.2035 69.4944 14.9647 69.8413 15.6199C70.1881 16.2751 70.6795 16.7857 71.3154 17.1519C71.9514 17.4987 72.6836 17.6722 73.5122 17.6722C74.2252 17.6722 74.8804 17.5469 75.4778 17.2964C76.0944 17.0459 76.6147 16.6797 77.0387 16.198L79.062 18.2503C78.3876 19.0403 77.5686 19.6377 76.6051 20.0424C75.6416 20.4471 74.6203 20.6494 73.5412 20.6494Z" fill="white"/>
<path d="M58.6766 20.3604V0.704834H61.8562V20.3604H58.6766ZM55.3525 9.37641V6.48588H65.1803V9.37641H55.3525Z" fill="white"/>
<path d="M45.6092 20.6494C44.3567 20.6494 43.2197 20.3314 42.1984 19.6955C41.1964 19.0596 40.3967 18.2021 39.7993 17.123C39.2212 16.0246 38.9321 14.8009 38.9321 13.452C38.9321 12.0838 39.2212 10.8602 39.7993 9.78103C40.3967 8.68263 41.1964 7.81547 42.1984 7.17955C43.2197 6.52437 44.3567 6.19678 45.6092 6.19678C46.6691 6.19678 47.6037 6.42802 48.4131 6.8905C49.2417 7.33372 49.8969 7.95036 50.3786 8.74044C50.8604 9.53052 51.1012 10.4266 51.1012 11.4286V15.4176C51.1012 16.4196 50.8604 17.3157 50.3786 18.1057C49.9161 18.8958 49.2706 19.5221 48.442 19.9846C47.6133 20.4278 46.6691 20.6494 45.6092 20.6494ZM46.1295 17.6433C47.305 17.6433 48.2493 17.2482 48.9622 16.4581C49.6945 15.6681 50.0607 14.6564 50.0607 13.4231C50.0607 12.5945 49.8969 11.8622 49.5693 11.2263C49.2417 10.5904 48.7792 10.099 48.1818 9.75212C47.6037 9.38599 46.9196 9.20292 46.1295 9.20292C45.3587 9.20292 44.6746 9.38599 44.0773 9.75212C43.4992 10.099 43.0367 10.5904 42.6898 11.2263C42.3622 11.8622 42.1984 12.5945 42.1984 13.4231C42.1984 14.2517 42.3622 14.984 42.6898 15.6199C43.0367 16.2558 43.4992 16.7568 44.0773 17.123C44.6746 17.4698 45.3587 17.6433 46.1295 17.6433ZM49.8583 20.3603V16.6316L50.4075 13.2497L49.8583 9.89665V6.48583H53.0379V20.3603H49.8583Z" fill="white"/>
<path d="M31.3798 20.3604V0.704834H34.5593V20.3604H31.3798ZM28.0557 9.37641V6.48588H37.8834V9.37641H28.0557Z" fill="white"/>
<path d="M21.3879 20.6494C20.6171 20.6494 19.8752 20.5531 19.1622 20.3603C18.4492 20.1484 17.794 19.8593 17.1966 19.4932C16.5992 19.1078 16.079 18.6453 15.6357 18.1057L17.6591 16.0824C18.1409 16.6412 18.6901 17.0652 19.3067 17.3542C19.9426 17.624 20.6556 17.7589 21.4457 17.7589C22.1587 17.7589 22.6983 17.6529 23.0644 17.4409C23.4305 17.2289 23.6136 16.9206 23.6136 16.516C23.6136 16.092 23.4402 15.7644 23.0933 15.5332C22.7464 15.3019 22.2936 15.1092 21.7347 14.9551C21.1952 14.7816 20.6171 14.6082 20.0004 14.4348C19.4031 14.2613 18.825 14.0301 18.2661 13.741C17.7266 13.4327 17.2833 13.0184 16.9365 12.4981C16.5896 11.9778 16.4162 11.3034 16.4162 10.4748C16.4162 9.58833 16.6185 8.82715 17.0232 8.19124C17.4471 7.55532 18.0349 7.06393 18.7864 6.71707C19.5572 6.37021 20.4726 6.19678 21.5324 6.19678C22.6501 6.19678 23.6329 6.39911 24.4807 6.80379C25.3479 7.18919 26.0705 7.77693 26.6486 8.56701L24.6253 10.5904C24.2206 10.0893 23.7581 9.71358 23.2378 9.46307C22.7175 9.21256 22.1202 9.0873 21.4457 9.0873C20.8098 9.0873 20.3184 9.18365 19.9715 9.37635C19.6247 9.56906 19.4512 9.84847 19.4512 10.2146C19.4512 10.6 19.6247 10.8987 19.9715 11.1107C20.3184 11.3226 20.7616 11.5057 21.3012 11.6599C21.86 11.814 22.4381 11.9875 23.0355 12.1802C23.6521 12.3536 24.2302 12.6041 24.7698 12.9317C25.3286 13.24 25.7815 13.664 26.1283 14.2035C26.4752 14.7238 26.6486 15.4079 26.6486 16.2558C26.6486 17.6047 26.1765 18.6742 25.2323 19.4643C24.288 20.2544 23.0066 20.6494 21.3879 20.6494Z" fill="white"/>
<path d="M0.233887 20.3604V0.126709H3.55799V20.3604H0.233887ZM2.5174 20.3604V17.3253H13.8483V20.3604H2.5174ZM2.5174 11.4865V8.56704H12.8655V11.4865H2.5174ZM2.5174 3.16176V0.126709H13.7037V3.16176H2.5174Z" fill="white"/>
</svg>
